<svg width="26" height="23" viewBox="0 0 26 23" fill="none" xmlns="http://www.w3.org/2000/svg">
<path fill-rule="evenodd" clip-rule="evenodd" d="M21.5448 0H1.73063C1.27182 0.00052047 0.831955 0.167706 0.507521 0.464889C0.183088 0.762071 0.000574112 1.16499 5.72205e-06 1.58527V16.8636C0.00170517 17.2834 0.184654 17.6855 0.508904 17.9822C0.833153 18.2788 1.27236 18.4459 1.73063 18.4469H14.5458V18.4155C14.5458 18.1499 14.5458 17.8903 14.5587 17.4556H1.50733C1.44455 17.4556 1.38239 17.4443 1.32442 17.4222C1.26644 17.4002 1.2138 17.3678 1.16951 17.3271C1.12522 17.2863 1.09015 17.2379 1.06632 17.1847C1.04249 17.1315 1.03037 17.0745 1.03065 17.017V3.82746H22.174V17.017C22.1744 17.0542 22.1693 17.0912 22.1589 17.1272C22.1849 17.2297 22.1986 17.3346 22.1997 17.4399C22.2056 17.7225 22.1425 18.0027 22.0151 18.2601C21.9932 18.3077 21.9673 18.3537 21.9378 18.3978C22.3155 18.3156 22.6524 18.1198 22.8944 17.8417C23.1365 17.5636 23.2699 17.2193 23.2733 16.8636V1.58527C23.2727 1.16533 23.0905 0.762708 22.7666 0.465582C22.4426 0.168456 22.0033 0.00104042 21.5448 0ZM4.3502 13.4866C4.14692 13.4769 3.95545 13.3961 3.81531 13.2609C3.67516 13.1256 3.59703 12.9463 3.59703 12.7598C3.59703 12.5734 3.67516 12.394 3.81531 12.2588C3.95545 12.1236 4.14692 12.0428 4.3502 12.0331H12.6426C12.7503 12.028 12.858 12.0429 12.9591 12.0771C13.0602 12.1114 13.1527 12.1641 13.2309 12.232C13.3091 12.3 13.3713 12.3819 13.4139 12.4726C13.4564 12.5634 13.4784 12.6611 13.4784 12.7598C13.4784 12.8586 13.4564 12.9563 13.4139 13.047C13.3713 13.1378 13.3091 13.2196 13.2309 13.2876C13.1527 13.3556 13.0602 13.4083 12.9591 13.4425C12.858 13.4767 12.7503 13.4917 12.6426 13.4866H4.3502ZM4.3502 8.37281C4.14692 8.36312 3.95545 8.28232 3.81531 8.14709C3.67516 8.01187 3.59703 7.83252 3.59703 7.64606C3.59703 7.4596 3.67516 7.28026 3.81531 7.14503C3.95545 7.0098 4.14692 6.92901 4.3502 6.91932H12.6426C12.7503 6.91419 12.858 6.92918 12.9591 6.96338C13.0602 6.99759 13.1527 7.05029 13.2309 7.11828C13.3091 7.18627 13.3713 7.26812 13.4139 7.35886C13.4564 7.44959 13.4784 7.54731 13.4784 7.64606C13.4784 7.74481 13.4564 7.84253 13.4139 7.93327C13.3713 8.024 13.3091 8.10586 13.2309 8.17384C13.1527 8.24183 13.0602 8.29453 12.9591 8.32874C12.858 8.36294 12.7503 8.37794 12.6426 8.37281H4.3502ZM3.37752 1.37678C3.20765 1.37678 3.0416 1.42292 2.90036 1.50937C2.75912 1.59582 2.64903 1.71869 2.58403 1.86245C2.51902 2.0062 2.50201 2.16439 2.53515 2.317C2.56829 2.46961 2.65009 2.60979 2.77021 2.71982C2.89032 2.82985 3.04336 2.90478 3.20996 2.93513C3.37657 2.96549 3.54926 2.94991 3.7062 2.89036C3.86314 2.83082 3.99727 2.72998 4.09165 2.6006C4.18602 2.47122 4.23639 2.31912 4.23639 2.16352C4.23639 1.95486 4.14591 1.75475 3.98484 1.60721C3.82377 1.45967 3.60531 1.37678 3.37752 1.37678ZM9.16418 1.37678C8.99431 1.37678 8.82826 1.42292 8.68702 1.50937C8.54577 1.59582 8.43569 1.71869 8.37068 1.86245C8.30568 2.0062 8.28867 2.16439 8.32181 2.317C8.35495 2.46961 8.43675 2.60979 8.55686 2.71982C8.67698 2.82985 8.83002 2.90478 8.99662 2.93513C9.16323 2.96549 9.33592 2.94991 9.49286 2.89036C9.64979 2.83082 9.78393 2.72998 9.87831 2.6006C9.97268 2.47122 10.0231 2.31912 10.0231 2.16352C10.0231 1.95486 9.93256 1.75475 9.77149 1.60721C9.61042 1.45967 9.39197 1.37678 9.16418 1.37678ZM6.26978 1.37678C6.09991 1.37678 5.93386 1.42292 5.79261 1.50937C5.65137 1.59582 5.54129 1.71869 5.47628 1.86245C5.41128 2.0062 5.39427 2.16439 5.42741 2.317C5.46055 2.46961 5.54235 2.60979 5.66246 2.71982C5.78258 2.82985 5.93562 2.90478 6.10222 2.93513C6.26883 2.96549 6.44152 2.94991 6.59846 2.89036C6.75539 2.83082 6.88953 2.72998 6.9839 2.6006C7.07828 2.47122 7.12865 2.31912 7.12865 2.16352C7.12865 1.95486 7.03816 1.75475 6.87709 1.60721C6.71602 1.45967 6.49756 1.37678 6.26978 1.37678Z" fill="white"/>
<circle cx="20.2729" cy="16.3941" r="5.72709" fill="#8BC152"/>
<path d="M20.2729 11.5479C17.6076 11.5479 15.4269 13.7286 15.4269 16.3939C15.4269 19.0592 17.6076 21.2399 20.2729 21.2399C22.9382 21.2399 25.1189 19.0592 25.1189 16.3939C25.1189 13.7286 22.9382 11.5479 20.2729 11.5479ZM22.0902 16.9996H20.8787V18.2111C20.8787 18.5746 20.6364 18.8169 20.2729 18.8169C19.9095 18.8169 19.6672 18.5746 19.6672 18.2111V16.9996H18.4557C18.0922 16.9996 17.8499 16.7573 17.8499 16.3939C17.8499 16.0304 18.0922 15.7881 18.4557 15.7881H19.6672V14.5766C19.6672 14.2132 19.9095 13.9709 20.2729 13.9709C20.6364 13.9709 20.8787 14.2132 20.8787 14.5766V15.7881H22.0902C22.4536 15.7881 22.6959 16.0304 22.6959 16.3939C22.6959 16.7573 22.4536 16.9996 22.0902 16.9996Z" fill="white"/>
<path d="M16.5039 6.32773C16.4611 6.50119 16.4926 6.68306 16.592 6.83585V6.82995L17.5797 7.94711C17.6345 8.02343 17.7053 8.08908 17.7879 8.1403C17.8705 8.19151 17.9634 8.22728 18.0611 8.24555C18.1589 8.26382 18.2596 8.26424 18.3575 8.24678C18.4555 8.22932 18.5486 8.19432 18.6318 8.14379C18.7004 8.10018 18.7612 8.04711 18.8121 7.98645L20.6329 5.98225C20.7605 5.84036 20.8213 5.65787 20.802 5.47492C20.7827 5.29197 20.6848 5.12354 20.5299 5.0067C20.375 4.88985 20.1758 4.83415 19.976 4.85186C19.7763 4.86956 19.5924 4.95922 19.4649 5.1011L18.2603 6.47789L17.8502 6.06485C17.7339 5.92245 17.5625 5.82634 17.3711 5.79633C17.1798 5.76633 16.9831 5.80472 16.8218 5.90359C16.6604 6.00246 16.5466 6.15428 16.5039 6.32773Z" fill="white"/>
</svg>
