<svg width="24" height="22" viewBox="0 0 24 22" fill="none" xmlns="http://www.w3.org/2000/svg">
<path d="M18.7981 0H1.04434C0.467654 0 0 0.46755 0 1.04434V5.79649C0 6.37328 0.467654 6.84083 1.04434 6.84083H1.4344V16.9315C1.4344 17.5083 1.90195 17.9759 2.47873 17.9759H17.3633C17.94 17.9759 18.4076 17.5083 18.4076 16.9315V6.84072H18.798C19.3747 6.84072 19.8423 6.37317 19.8423 5.79639V1.04434C19.8424 0.46755 19.3748 0 18.7981 0ZM12.118 9.32196H7.72423C7.26358 9.32196 6.88876 8.94715 6.88876 8.48649C6.88876 8.02584 7.26358 7.65102 7.72423 7.65102H12.118C12.5786 7.65102 12.9534 8.02584 12.9534 8.48649C12.9534 8.94715 12.5786 9.32196 12.118 9.32196ZM17.7537 4.75205H17.3634H2.47873H2.08868V2.08867H17.7537V4.75205Z" fill="white"/>
<circle cx="18.1407" cy="15.7812" r="5.85935" fill="#8BC152"/>
<path d="M18.1407 10.8232C15.4138 10.8232 13.1828 13.0543 13.1828 15.7812C13.1828 18.508 15.4138 20.7391 18.1407 20.7391C20.8675 20.7391 23.0986 18.508 23.0986 15.7812C23.0986 13.0543 20.8675 10.8232 18.1407 10.8232ZM19.9999 16.4009H18.7604V17.6404C18.7604 18.0122 18.5125 18.2601 18.1407 18.2601C17.7688 18.2601 17.5209 18.0122 17.5209 17.6404V16.4009H16.2815C15.9096 16.4009 15.6617 16.153 15.6617 15.7812C15.6617 15.4093 15.9096 15.1614 16.2815 15.1614H17.5209V13.9219C17.5209 13.5501 17.7688 13.3022 18.1407 13.3022C18.5125 13.3022 18.7604 13.5501 18.7604 13.9219V15.1614H19.9999C20.3717 15.1614 20.6196 15.4093 20.6196 15.7812C20.6196 16.153 20.3717 16.4009 19.9999 16.4009Z" fill="white"/>
</svg>
