<svg width="28" height="28" viewBox="0 0 28 28" fill="none" xmlns="http://www.w3.org/2000/svg">
<path d="M3.01 22.1791L2.9855 22.2036C2.6705 21.5141 2.471 20.7336 2.3905 19.8691C2.4745 20.7196 2.695 21.4896 3.01 22.1791Z" fill="#8BC152"/>
<path d="M10.5 12.1096C12.033 12.1096 13.2755 10.8671 13.2755 9.33409C13.2755 7.80109 12.033 6.55859 10.5 6.55859C8.96699 6.55859 7.72449 7.80109 7.72449 9.33409C7.72449 10.8671 8.96699 12.1096 10.5 12.1096Z" fill="#8BC152"/>
<path d="M18.8895 2.33496H9.11047C4.86497 2.33496 2.33447 4.86546 2.33447 9.11096V18.8865C2.33447 20.157 2.55497 21.2665 2.98897 22.201C3.99347 24.4165 6.13897 25.666 9.11397 25.666H18.8895C23.135 25.666 25.669 23.1355 25.669 18.8865V16.216V9.11096C25.6655 4.86546 23.135 2.33496 18.8895 2.33496ZM24.311 14.6935C23.3485 13.8675 21.798 13.8675 20.8355 14.6935L15.7115 19.0895C14.749 19.9155 13.1985 19.9155 12.236 19.0895L11.816 18.743C10.941 17.98 9.54797 17.9065 8.56447 18.5715L3.95847 21.6655C3.68897 20.976 3.52797 20.1745 3.52797 19.24V8.91496C3.52797 5.43946 5.36197 3.60546 8.83747 3.60546H19.1625C22.638 3.60546 24.472 5.43946 24.472 8.91496V14.8265L24.311 14.6935Z" fill="#8BC152"/>
</svg>
