<svg width="24" height="24" viewBox="0 0 24 24" fill="none" xmlns="http://www.w3.org/2000/svg">
<path d="M22.0001 0.0788174C22.8331 0.364177 23.4362 1.10986 23.4866 1.90618C23.5557 2.96026 22.7825 3.90826 21.7053 4.09714C20.6928 4.27666 19.5881 3.43426 19.3994 2.3389C19.2384 1.40458 19.9058 0.387457 20.8769 0.0836172C21.2268 -0.0270228 21.6962 -0.0270228 22.0001 0.0788174ZM21.029 0.893617C20.5365 1.04098 20.2281 1.4737 20.2281 2.02594C20.2281 2.40802 20.3294 2.70706 20.532 2.91418C20.7713 3.16282 20.9417 3.2317 21.3559 3.25474C21.6689 3.27322 21.7656 3.2593 21.9681 3.17194C22.4421 2.96938 22.7045 2.48602 22.6541 1.9201C22.5847 1.12378 21.8345 0.654097 21.029 0.893617Z" fill="#F05F97"/>
<path d="M11.3402 2.08557C12.0031 2.30181 12.5093 2.97381 12.5093 3.63213C12.5093 4.22133 12.1226 4.80573 11.5474 5.08653C11.3172 5.20149 11.2205 5.21997 10.9075 5.21997C10.5946 5.21997 10.4978 5.20149 10.277 5.09109C9.92736 4.92069 9.6096 4.59861 9.444 4.24413C9.17232 3.65949 9.31056 3.00141 9.80304 2.51349C10.231 2.09469 10.8384 1.92453 11.3402 2.08557ZM10.4748 2.96925C10.0375 3.22701 10.0421 4.04157 10.4794 4.29933C10.691 4.42365 11.1283 4.42365 11.34 4.29933C11.5517 4.17501 11.6669 3.94485 11.6669 3.64125C11.6669 3.24069 11.5058 3.00141 11.1653 2.89101C10.9951 2.83581 10.6313 2.87709 10.4748 2.96925Z" fill="#F05F97"/>
<path d="M17.3237 3.45266C18.4375 3.6689 19.4686 4.46522 19.9795 5.49626C20.2558 6.06242 20.3662 6.51818 20.3662 7.12562V7.61354L20.633 7.7609C21.0288 7.98194 21.3833 8.28098 21.6319 8.60786C22.0968 9.22466 22.2533 9.75866 22.2854 10.8816L22.313 11.6686L22.5156 11.7514C22.8286 11.8803 23.1922 12.2439 23.3671 12.5983C23.5006 12.8652 23.519 12.948 23.519 13.2749C23.519 13.6018 23.5006 13.6846 23.3671 13.9515C23.1922 14.3059 22.8286 14.6695 22.511 14.7984L22.2994 14.8858V15.162C22.2994 15.6499 22.2072 16.4875 22.1107 16.8881C21.6322 18.9226 20.058 20.6623 18.0787 21.3528L17.6599 21.5002L17.6414 21.8777C17.6184 22.3332 17.4941 22.614 17.1905 22.9179C16.7993 23.3136 16.2653 23.461 15.805 23.3136C15.3264 23.1571 14.9167 22.7614 14.7878 22.3287L14.7326 22.1352H11.543C8.70768 22.1352 8.35344 22.1443 8.35344 22.2043C8.35344 22.3378 8.12328 22.7335 7.9392 22.9179C7.63536 23.2217 7.33152 23.3506 6.92664 23.3551C6.49392 23.3551 6.22248 23.2354 5.88192 22.8903C5.58264 22.5819 5.454 22.2598 5.454 21.8177V21.5047L5.03064 21.3528C4.14696 21.0444 3.3552 20.5474 2.69256 19.8799C1.41312 18.5957 0.805443 17.0815 0.805443 15.1851V14.7202L0.552242 14.4855C0.386642 14.3381 0.248402 14.1495 0.15168 13.9515C0.01824 13.6843 -0.000238419 13.6015 -0.000238419 13.2749C-0.000238419 12.9711 0.0228004 12.8607 0.124081 12.6444C0.294481 12.2763 0.616562 11.9448 0.984722 11.7653L1.28784 11.6179L4.9056 11.604L8.52336 11.5949L8.55096 11.2128C8.67072 9.5189 9.60048 7.9541 11.0549 6.99218C11.575 6.64706 11.9801 6.46274 12.6106 6.27866C12.8407 6.21434 13.0385 6.14522 13.0524 6.12674C13.0709 6.10826 13.1167 5.98874 13.1582 5.86442C13.3423 5.28458 13.9361 4.51586 14.4977 4.1153C14.8752 3.84362 15.3814 3.6089 15.8278 3.49394C16.2144 3.39746 16.9325 3.37442 17.3237 3.45266ZM15.8095 4.35002C14.783 4.65842 14.0698 5.45474 13.835 6.5501L13.7522 6.92282L13.3702 6.97802C11.497 7.2449 9.978 8.57978 9.53136 10.3565C9.45312 10.6649 9.37032 11.2402 9.36576 11.4658V11.5947H15.3953H21.4248V10.9366C21.4248 10.2231 21.3605 9.84578 21.1762 9.48674C20.923 8.9849 20.5502 8.6537 19.8689 8.3177C19.6111 8.18882 19.3994 8.07386 19.3994 8.05538C19.404 8.04146 19.4316 7.90346 19.4686 7.75154C19.6942 6.8309 19.3764 5.71706 18.7092 5.05898C18.2858 4.64474 17.7058 4.35026 17.1214 4.2581C16.8588 4.21658 16.0625 4.27178 15.8095 4.35002ZM1.37976 12.474C0.716881 12.6581 0.611042 13.6524 1.21872 14.0067L1.37976 14.1034H11.759H22.1383L22.2994 14.0067C22.8886 13.6661 22.8149 12.7133 22.1844 12.4925C22.0279 12.4373 20.4677 12.4279 11.7823 12.4234C4.50048 12.4234 1.51344 12.4371 1.37976 12.474ZM1.67904 15.5026C1.67904 17.0307 2.22216 18.3195 3.29928 19.3551C4.05408 20.0777 4.93776 20.538 5.99184 20.7543L6.28176 20.814V21.4308C6.28176 22.0983 6.3324 22.3054 6.52104 22.4249C6.70512 22.5492 6.95376 22.5677 7.18392 22.4801C7.46472 22.3743 7.5384 22.2223 7.56144 21.6883L7.57992 21.2602H11.5519H15.5242L15.5426 21.7111C15.5611 22.1945 15.6209 22.3416 15.8419 22.4614C16.026 22.5581 16.4266 22.5396 16.5785 22.4292C16.7717 22.2864 16.8178 22.0887 16.8178 21.4121L16.8223 20.8044L17.0846 20.7538C18.8568 20.4087 20.3203 19.2394 21.0108 17.6194C21.2777 16.9841 21.3835 16.4825 21.4114 15.6771L21.439 14.9544H11.557H1.67904V15.5026Z" fill="#F05F97"/>
<path d="M19.8369 17.0352C19.9428 17.1595 19.9567 17.2102 19.9337 17.3666C19.8369 17.9513 19.1467 18.821 18.7783 18.821C18.5621 18.821 18.4838 18.7843 18.4101 18.6324C18.2858 18.3931 18.318 18.2825 18.6127 18.0019C18.8796 17.7396 19.0133 17.5325 19.1191 17.201C19.1882 16.9848 19.3217 16.8881 19.5425 16.8881C19.6805 16.8881 19.7402 16.9202 19.8369 17.0352Z" fill="#F05F97"/>
<path d="M17.4987 19.0237C17.6551 19.1617 17.6782 19.447 17.5402 19.599C17.3837 19.7691 16.5137 19.9856 15.4183 20.119C14.7418 20.1973 12.0583 20.2018 11.911 20.119C11.6532 19.9762 11.6117 19.599 11.8327 19.424C11.9386 19.3412 12.0307 19.3366 13.3839 19.3366C15.0041 19.3412 15.6943 19.2814 16.638 19.0513C17.31 18.8857 17.3376 18.8857 17.4987 19.0237Z" fill="#F05F97"/>
</svg>
