<svg width="26" height="28" viewBox="0 0 26 28" fill="none" xmlns="http://www.w3.org/2000/svg">
<path d="M1.53936 0.0794134C0.695126 0.368609 0.0838995 1.12431 0.0328221 1.93133C-0.037227 2.99958 0.746447 3.96032 1.83804 4.15174C2.86421 4.33368 3.98378 3.47995 4.17496 2.36987C4.33816 1.42299 3.66175 0.392202 2.67766 0.0842781C2.32304 -0.0278492 1.84729 -0.0278492 1.53936 0.0794134ZM2.52345 0.905165C3.02255 1.05451 3.3351 1.49304 3.3351 2.0527C3.3351 2.43992 3.23246 2.74298 3.02718 2.95288C2.78468 3.20487 2.61199 3.27467 2.19218 3.29802C1.87501 3.31675 1.77699 3.30264 1.57171 3.21411C1.09134 3.00883 0.825495 2.51897 0.876572 1.94544C0.946865 1.13842 1.70719 0.662426 2.52345 0.905165Z" fill="white"/>
<path d="M12.3425 2.114C11.6707 2.33314 11.1577 3.01418 11.1577 3.68135C11.1577 4.27847 11.5496 4.87072 12.1326 5.15529C12.3658 5.2718 12.4639 5.29053 12.781 5.29053C13.0982 5.29053 13.1962 5.2718 13.42 5.15992C13.7744 4.98722 14.0964 4.66082 14.2642 4.30157C14.5396 3.70907 14.3995 3.04215 13.9004 2.54767C13.4667 2.12324 12.8511 1.95079 12.3425 2.114ZM13.2196 3.00956C13.6627 3.27078 13.6581 4.09629 13.215 4.35751C13.0004 4.4835 12.5573 4.4835 12.3427 4.35751C12.1282 4.23152 12.0115 3.99827 12.0115 3.69059C12.0115 3.28464 12.1747 3.04215 12.5198 2.93026C12.6923 2.87432 13.061 2.91616 13.2196 3.00956Z" fill="white"/>
<path d="M6.27863 3.49893C5.14982 3.71807 4.10492 4.5251 3.58709 5.56999C3.30714 6.14376 3.19526 6.60565 3.19526 7.22125V7.71573L2.92479 7.86507C2.52371 8.08908 2.16447 8.39214 1.91248 8.72342C1.44136 9.34851 1.28277 9.88968 1.25018 11.0277L1.22221 11.8253L1.01693 11.9092C0.699761 12.0398 0.331274 12.4083 0.153962 12.7675C0.0187284 13.038 0 13.1219 0 13.4532C0 13.7845 0.0187284 13.8684 0.153962 14.1388C0.331274 14.4981 0.699761 14.8666 1.02155 14.9972L1.23607 15.0857V15.3657C1.23607 15.8601 1.32947 16.709 1.42725 17.115C1.91224 19.1768 3.50756 20.9399 5.51344 21.6397L5.93787 21.789L5.9566 22.1716C5.97995 22.6333 6.10594 22.9178 6.41362 23.2258C6.81008 23.6268 7.35126 23.7762 7.81776 23.6268C8.30276 23.4683 8.71794 23.0672 8.84856 22.6286L8.9045 22.4326H12.137C15.0104 22.4326 15.3694 22.4418 15.3694 22.5026C15.3694 22.6379 15.6027 23.039 15.7892 23.2258C16.0972 23.5337 16.4051 23.6643 16.8154 23.6689C17.254 23.6689 17.529 23.5475 17.8742 23.1978C18.1775 22.8852 18.3079 22.5588 18.3079 22.1108V21.7936L18.7369 21.6397C19.6325 21.3271 20.4349 20.8234 21.1064 20.147C22.403 18.8455 23.0189 17.311 23.0189 15.389V14.9179L23.2755 14.68C23.4433 14.5307 23.5834 14.3395 23.6814 14.1388C23.8167 13.8681 23.8354 13.7842 23.8354 13.4532C23.8354 13.1453 23.8121 13.0334 23.7094 12.8142C23.5367 12.4411 23.2103 12.1052 22.8372 11.9233L22.53 11.774L18.8636 11.7598L15.1972 11.7506L15.1693 11.3634C15.0479 9.6467 14.1056 8.06087 12.6317 7.08602C12.1046 6.73626 11.6941 6.54947 11.0551 6.36291C10.8218 6.29773 10.6214 6.22768 10.6073 6.20895C10.5886 6.19022 10.5421 6.06909 10.5001 5.9431C10.3135 5.35547 9.71176 4.57642 9.14262 4.17047C8.76002 3.89514 8.24706 3.65726 7.79466 3.54076C7.40282 3.44298 6.67509 3.41964 6.27863 3.49893ZM7.81314 4.40835C8.85342 4.72089 9.57629 5.52792 9.81416 6.638L9.89808 7.01573L10.2853 7.07167C12.1837 7.34214 13.723 8.69496 14.1757 10.4956C14.255 10.8081 14.3389 11.3911 14.3435 11.6198V11.7504H8.23295H2.12239V11.0834C2.12239 10.3603 2.18757 9.97798 2.37437 9.61411C2.63097 9.10553 3.0087 8.76987 3.69922 8.42936C3.96045 8.29874 4.17497 8.18224 4.17497 8.16351C4.17035 8.1494 4.14238 8.00955 4.10492 7.85559C3.87629 6.92257 4.19832 5.79376 4.87449 5.12684C5.30354 4.70703 5.89142 4.40859 6.48367 4.31519C6.74976 4.27312 7.55678 4.32906 7.81314 4.40835ZM22.4369 12.6415C23.1086 12.8281 23.2159 13.8358 22.6001 14.1948L22.4369 14.2928H11.9181H1.39928L1.23607 14.1948C0.638954 13.8496 0.713624 12.884 1.35258 12.6603C1.51116 12.6043 3.09237 12.5948 11.8945 12.5902C19.2742 12.5902 22.3014 12.6041 22.4369 12.6415ZM22.1336 15.7108C22.1336 17.2594 21.5831 18.5655 20.4915 19.6151C19.7266 20.3474 18.831 20.8139 17.7628 21.0331L17.469 21.0936V21.7187C17.469 22.3951 17.4176 22.605 17.2265 22.7262C17.0399 22.8522 16.7879 22.8709 16.5547 22.7821C16.2701 22.6748 16.1954 22.5209 16.1721 21.9797L16.1534 21.5458H12.128H8.10234L8.08361 22.0028C8.06488 22.4927 8.00432 22.6418 7.78031 22.7631C7.59375 22.8612 7.18781 22.8424 7.03385 22.7305C6.83805 22.5858 6.79135 22.3854 6.79135 21.6998L6.78673 21.0839L6.52088 21.0326C4.72491 20.6828 3.24171 19.4978 2.54195 17.8561C2.27149 17.2122 2.16422 16.7039 2.13601 15.8876L2.10804 15.1553H12.1229H22.1336V15.7108Z" fill="white"/>
<path d="M3.73156 17.2644C3.6243 17.3904 3.61019 17.4417 3.63354 17.6003C3.73156 18.1928 4.43108 19.0742 4.80443 19.0742C5.02357 19.0742 5.10287 19.037 5.17754 18.883C5.30353 18.6405 5.27094 18.5284 4.97225 18.2441C4.70179 17.9782 4.56631 17.7683 4.45905 17.4324C4.389 17.2133 4.25376 17.1153 4.03 17.1153C3.89014 17.1153 3.82958 17.1479 3.73156 17.2644Z" fill="white"/>
<path d="M6.1013 19.2789C5.94272 19.4188 5.91937 19.7079 6.05923 19.8619C6.21781 20.0344 7.0995 20.2537 8.20959 20.389C8.89524 20.4683 11.6147 20.4729 11.7641 20.389C12.0253 20.2443 12.0674 19.8619 11.8434 19.6846C11.7361 19.6007 11.6427 19.5961 10.2714 19.5961C8.62939 19.6007 7.92988 19.5401 6.97351 19.3069C6.29248 19.139 6.26451 19.139 6.1013 19.2789Z" fill="white"/>
<circle cx="20.0941" cy="21.1076" r="5.90591" fill="#8BC152"/>
<path d="M20.0942 16.1099C17.3457 16.1099 15.0969 18.3587 15.0969 21.1072C15.0969 23.8557 17.3457 26.1045 20.0942 26.1045C22.8427 26.1045 25.0915 23.8557 25.0915 21.1072C25.0915 18.3587 22.8427 16.1099 20.0942 16.1099ZM21.9682 21.7318H20.7188V22.9812C20.7188 23.356 20.469 23.6058 20.0942 23.6058C19.7194 23.6058 19.4695 23.356 19.4695 22.9812V21.7318H18.2202C17.8454 21.7318 17.5955 21.482 17.5955 21.1072C17.5955 20.7324 17.8454 20.4825 18.2202 20.4825H19.4695V19.2332C19.4695 18.8584 19.7194 18.6085 20.0942 18.6085C20.469 18.6085 20.7188 18.8584 20.7188 19.2332V20.4825H21.9682C22.343 20.4825 22.5928 20.7324 22.5928 21.1072C22.5928 21.482 22.343 21.7318 21.9682 21.7318Z" fill="white"/>
</svg>
