<svg width="24" height="18" viewBox="0 0 24 18" fill="none" xmlns="http://www.w3.org/2000/svg">
<path d="M4.05089 10.3685C4.33424 10.6553 4.70759 10.7989 5.0812 10.7989C5.44892 10.7989 5.81688 10.6597 6.0991 10.3808C6.66809 9.81861 6.67361 8.90158 6.11138 8.33258L4.96131 7.16864H16.6523C19.1066 7.16864 21.1033 9.16531 21.1033 11.6196V11.7388C21.1033 12.9277 20.6403 14.0454 19.7997 14.8861C19.234 15.4517 19.234 16.3687 19.7997 16.9343C20.0825 17.2171 20.4532 17.3585 20.8238 17.3585C21.1944 17.3585 21.5651 17.2171 21.8479 16.9343C23.2357 15.5465 24 13.7014 24 11.7387V11.6196C24 9.65692 23.2357 7.81176 21.8479 6.42397C20.4601 5.03618 18.615 4.2719 16.6523 4.2719H4.92793L6.0935 3.1202C6.66249 2.55799 6.66801 1.64096 6.10578 1.07197C5.54365 0.503001 4.62659 0.497456 4.05757 1.05969L0.430392 4.64369C0.157137 4.91369 0.00231615 5.28116 2.63908e-05 5.66526C-0.00229096 6.04939 0.148089 6.41867 0.418087 6.69193L4.05089 10.3685Z" fill="currentColor"/>
</svg>
