<svg width="24" height="24" viewBox="0 0 24 24" fill="none" xmlns="http://www.w3.org/2000/svg">
<path d="M4.05089 13.3685C4.33424 13.6553 4.70759 13.7989 5.0812 13.7989C5.44892 13.7989 5.81688 13.6597 6.0991 13.3808C6.66809 12.8186 6.67361 11.9016 6.11138 11.3326L4.96131 10.1686H16.6523C19.1066 10.1686 21.1033 12.1653 21.1033 14.6196V14.7388C21.1033 15.9277 20.6403 17.0454 19.7997 17.8861C19.234 18.4517 19.234 19.3687 19.7997 19.9343C20.0825 20.2171 20.4532 20.3585 20.8238 20.3585C21.1944 20.3585 21.5651 20.2171 21.8479 19.9343C23.2357 18.5465 24 16.7014 24 14.7387V14.6196C24 12.6569 23.2357 10.8118 21.8479 9.42397C20.4601 8.03618 18.615 7.2719 16.6523 7.2719H4.92793L6.0935 6.1202C6.66249 5.55799 6.66801 4.64096 6.10578 4.07197C5.54365 3.503 4.62659 3.49746 4.05757 4.05969L0.430392 7.64369C0.157137 7.91369 0.00231615 8.28116 2.63908e-05 8.66526C-0.00229096 9.04939 0.148089 9.41867 0.418087 9.69193L4.05089 13.3685Z" fill="#F05F97"/>
</svg>
