<svg width="21" height="24" viewBox="0 0 21 24" fill="none" xmlns="http://www.w3.org/2000/svg">
<path d="M13.7382 20.6299C13.7382 20.97 13.6521 21.3069 13.4849 21.6212C13.3175 21.9356 13.0724 22.2211 12.7634 22.4617C12.4542 22.7023 12.0873 22.893 11.6835 23.0232C11.2797 23.1534 10.8468 23.2205 10.4097 23.2205C9.97263 23.2205 9.53987 23.1534 9.13596 23.0232C8.73216 22.893 8.3652 22.7023 8.05618 22.4617C7.74711 22.2211 7.50193 21.9356 7.33466 21.6212C7.16738 21.3069 7.0813 20.97 7.0813 20.6299" stroke="black" stroke-width="1.4" stroke-linecap="round"/>
<path d="M19 13.6169L19.2936 14.257C20.4138 16.6982 18.9549 19.5516 16.3366 20.0407L16.1589 20.0739C12.3583 20.7838 8.46115 20.7838 4.66059 20.0739C2.02085 19.5808 0.624302 16.6293 1.90168 14.2433L2.15292 13.774C2.83886 12.4926 3.19808 11.0587 3.19808 9.60187V8.12015C3.19808 5.62635 4.59472 3.34739 6.80391 2.23634C9.08343 1.08994 11.7546 1.05095 14.0658 2.13032L14.293 2.23634C16.6604 3.34193 18.1762 5.73727 18.1762 8.37291V9.84268C18.1762 11.1463 18.4573 12.4342 19 13.6169Z" stroke="black" stroke-width="1.4"/>
<path d="M7.77295 15.0857H13.3212" stroke="black" stroke-width="1.4" stroke-linecap="round"/>
</svg>
