<svg width="21" height="30" viewBox="0 0 21 30" fill="none" xmlns="http://www.w3.org/2000/svg">
<path d="M18.6537 4.81116H15.5057V4.2079C15.5057 3.43164 14.8742 2.80013 14.0979 2.80013H13.9241C13.6017 1.20485 12.1891 0 10.5002 0C8.81124 0 7.39856 1.20485 7.07612 2.80013H6.90208C6.12582 2.80013 5.4943 3.43164 5.4943 4.2079V4.81116H2.3463C1.0525 4.81116 0 5.86377 0 7.15746V27.3841C0 28.6778 1.0525 29.7304 2.3463 29.7304H18.6537C19.9474 29.7304 21 28.6778 21 27.3841V7.15746C21 5.86366 19.9475 4.81116 18.6537 4.81116ZM7.0585 4.36432H13.9416V6.92659H7.0585V4.36432ZM10.5002 1.5642C11.3194 1.5642 12.0191 2.0784 12.2985 2.80013H8.70195C8.98121 2.0784 9.68093 1.5642 10.5002 1.5642ZM19.4358 27.3841C19.4358 27.8154 19.085 28.1662 18.6537 28.1662H2.3463C1.915 28.1662 1.5642 27.8154 1.5642 27.3841V7.15746C1.5642 6.72616 1.915 6.37536 2.3463 6.37536H5.4943V7.08301C5.4943 7.85927 6.12582 8.49079 6.90208 8.49079H14.098C14.8743 8.49079 15.5058 7.85927 15.5058 7.08301V6.37536H18.6538C19.0851 6.37536 19.4359 6.72616 19.4359 7.15746V27.3841H19.4358Z" fill="currentColor"/>
<path d="M15.783 11.255H5.21716C4.78523 11.255 4.43506 11.6051 4.43506 12.0371C4.43506 12.4691 4.78523 12.8192 5.21716 12.8192H15.783C16.215 12.8192 16.5651 12.4691 16.5651 12.0371C16.5651 11.6051 16.215 11.255 15.783 11.255Z" fill="currentColor"/>
<path d="M15.783 15.1477H5.21716C4.78523 15.1477 4.43506 15.4978 4.43506 15.9298C4.43506 16.3618 4.78523 16.7119 5.21716 16.7119H15.783C16.215 16.7119 16.5651 16.3618 16.5651 15.9298C16.5651 15.4978 16.215 15.1477 15.783 15.1477Z" fill="currentColor"/>
<path d="M15.783 19.0406H5.21716C4.78523 19.0406 4.43506 19.3907 4.43506 19.8227C4.43506 20.2547 4.78523 20.6048 5.21716 20.6048H15.783C16.215 20.6048 16.5651 20.2547 16.5651 19.8227C16.5651 19.3907 16.215 19.0406 15.783 19.0406Z" fill="currentColor"/>
<path d="M15.783 24.1161H12.5211C12.0891 24.1161 11.739 24.4662 11.739 24.8982C11.739 25.3302 12.0891 25.6803 12.5211 25.6803H15.783C16.215 25.6803 16.5651 25.3302 16.5651 24.8982C16.5651 24.4662 16.215 24.1161 15.783 24.1161Z" fill="currentColor"/>
</svg>
