<svg width="22" height="22" viewBox="0 0 22 22" fill="none" xmlns="http://www.w3.org/2000/svg">
<g clip-path="url(#clip0_1824_106)">
<path d="M8.12457 3.8129C8.12457 5.4013 9.41157 6.6883 11 6.6883C12.5884 6.6883 13.8754 5.4013 13.8754 3.8129C13.8754 2.2245 12.5884 0.9375 11 0.9375C9.41157 0.9397 8.12457 2.2267 8.12457 3.8129ZM3.81257 11.7197H18.1852V13.8757H19.624V10.2809H11.7194V8.1249H10.2828V10.2809H2.37597V13.8735H3.81257V11.7197ZM0.219971 18.1877C0.219971 19.7761 1.50697 21.0631 3.09537 21.0631C4.68377 21.0631 5.97077 19.7761 5.97077 18.1877C5.97077 16.5993 4.68377 15.3123 3.09537 15.3123C1.50697 15.3123 0.219971 16.5993 0.219971 18.1877ZM16.0314 18.1877C16.0314 19.7761 17.3184 21.0631 18.9068 21.0631C20.4952 21.0631 21.78 19.7739 21.78 18.1877C21.78 16.5993 20.493 15.3123 18.9046 15.3123C17.3162 15.3123 16.0314 16.5993 16.0314 18.1877ZM8.12457 18.1877C8.12457 19.7761 9.41157 21.0631 11 21.0631C12.5884 21.0631 13.8754 19.7761 13.8754 18.1877C13.8754 16.5993 12.5884 15.3123 11 15.3123C9.41157 15.3123 8.12457 16.5993 8.12457 18.1877Z" fill="#F05F97"/>
</g>
<defs>
<clipPath id="clip0_1824_106">
<rect width="22" height="22" fill="white"/>
</clipPath>
</defs>
</svg>
