<svg width="24" height="24" viewBox="0 0 24 24" fill="none" xmlns="http://www.w3.org/2000/svg">
<path d="M19.4617 12.5467C18.9839 12.4195 18.4824 12.3506 17.9646 12.3506C17.9019 12.3506 17.8398 12.3534 17.7775 12.3553C14.6917 12.4534 12.2152 14.9602 12.166 18.0581C12.1654 18.0894 12.1636 18.1202 12.1636 18.1517C12.1636 18.772 12.262 19.369 12.4422 19.9294C13.193 22.2633 15.3811 23.9528 17.9646 23.9528C21.1684 23.9528 23.7657 21.3556 23.7657 18.1517C23.7656 15.4656 21.9396 13.2069 19.4617 12.5467ZM17.9646 21.9879C15.8459 21.9879 14.1284 20.2704 14.1284 18.1517C14.1284 16.033 15.8459 14.3155 17.9646 14.3155C20.0833 14.3155 21.8008 16.033 21.8008 18.1517C21.8008 20.2704 20.0832 21.9879 17.9646 21.9879Z" fill="#8BC152"/>
<path d="M18.5259 15.5319H17.216V17.5903H15.1576V18.9002H17.216V20.9586H18.5259V18.9002H20.5844V17.5903H18.5259V15.5319Z" fill="#8BC152"/>
<path d="M4.86539 4.39756C5.22656 4.39756 5.52034 4.10375 5.52034 3.74262V2.15199V0.654944C5.52038 0.293813 5.22656 0 4.86539 0H4.30399C3.94282 0 3.64905 0.293813 3.64905 0.654944V2.15199V3.74262C3.64905 4.10379 3.94282 4.39756 4.30399 4.39756H4.86539Z" fill="#8BC152"/>
<path d="M15.1576 4.39756C15.5187 4.39756 15.8125 4.10375 15.8125 3.74262V2.15199V0.654944C15.8125 0.293813 15.5187 0 15.1576 0H14.5962C14.235 0 13.9412 0.293813 13.9412 0.654944V2.15199V3.74262C13.9412 4.10379 14.235 4.39756 14.5962 4.39756H15.1576Z" fill="#8BC152"/>
<path d="M10.6665 19.368C10.5751 18.914 10.5267 18.4449 10.5267 17.9646C10.5267 17.8072 10.5336 17.6515 10.5437 17.4967H2.80693C2.18679 17.4967 1.68413 16.9941 1.68413 16.3739V7.39164H17.7774V10.8635C17.9013 10.8571 18.0261 10.8536 18.1517 10.8536C18.5993 10.8536 19.0366 10.897 19.4616 10.9765V3.64902C19.4616 2.82226 18.7913 2.15198 17.9645 2.15198H16.7482V3.74261C16.7482 4.6197 16.0347 5.33323 15.1576 5.33323H14.5962C13.7191 5.33323 13.0055 4.6197 13.0055 3.74261V2.15198H6.45601V3.74261C6.45601 4.6197 5.74248 5.33323 4.86539 5.33323H4.30398C3.42689 5.33323 2.71335 4.6197 2.71335 3.74261V2.15198H1.49705C0.670286 2.15198 0 2.82226 0 3.64902V17.871C0 18.6977 0.670286 19.368 1.49705 19.368H10.6665Z" fill="#8BC152"/>
<path d="M5.27489 11.6841C6.09529 11.6841 6.76035 11.019 6.76035 10.1986C6.76035 9.37821 6.09529 8.71315 5.27489 8.71315C4.45449 8.71315 3.78943 9.37821 3.78943 10.1986C3.78943 11.019 4.45449 11.6841 5.27489 11.6841Z" fill="#8BC152"/>
<path d="M9.73076 11.6841C10.5512 11.6841 11.2162 11.019 11.2162 10.1986C11.2162 9.37821 10.5512 8.71315 9.73076 8.71315C8.91036 8.71315 8.2453 9.37821 8.2453 10.1986C8.2453 11.019 8.91036 11.6841 9.73076 11.6841Z" fill="#8BC152"/>
<path d="M14.1868 11.6841C15.0072 11.6841 15.6723 11.019 15.6723 10.1986C15.6723 9.37821 15.0072 8.71315 14.1868 8.71315C13.3664 8.71315 12.7014 9.37821 12.7014 10.1986C12.7014 11.019 13.3664 11.6841 14.1868 11.6841Z" fill="#8BC152"/>
<path d="M9.73078 16.1752C10.5512 16.1752 11.2162 15.5102 11.2162 14.6898C11.2162 13.8694 10.5512 13.2044 9.73078 13.2044C8.91041 13.2044 8.24536 13.8694 8.24536 14.6898C8.24536 15.5102 8.91041 16.1752 9.73078 16.1752Z" fill="#8BC152"/>
<path d="M5.27491 16.1752C6.09529 16.1752 6.76034 15.5102 6.76034 14.6898C6.76034 13.8694 6.09529 13.2044 5.27491 13.2044C4.45454 13.2044 3.78949 13.8694 3.78949 14.6898C3.78949 15.5102 4.45454 16.1752 5.27491 16.1752Z" fill="#8BC152"/>
</svg>
