<svg width="15" height="15" viewBox="0 0 15 15" fill="none" xmlns="http://www.w3.org/2000/svg">
<path d="M14.8301 12.6067L9.70508 7.46486L14.8418 2.38938C15.0527 2.17855 15.0527 1.83498 14.8418 1.62415L13.3809 0.156169C13.2793 0.054659 13.1426 0 12.998 0C12.8535 0 12.7168 0.0585632 12.6152 0.156169L7.50195 5.21603L2.38086 0.160073C2.2793 0.0585635 2.14258 0.00390445 1.99805 0.00390445C1.85352 0.00390445 1.7168 0.0624677 1.61523 0.160073L0.158203 1.62806C-0.0527344 1.83889 -0.0527344 2.18246 0.158203 2.39328L5.29492 7.46877L0.173828 12.6067C0.0722657 12.7082 0.013672 12.8449 0.013672 12.9893C0.013672 13.1338 0.0683594 13.2704 0.173828 13.3719L1.63477 14.8399C1.74023 14.9453 1.87695 15 2.01758 15C2.1543 15 2.29492 14.9492 2.40039 14.8399L7.50195 9.7176L12.6074 14.836C12.7129 14.9414 12.8496 14.9961 12.9902 14.9961C13.127 14.9961 13.2676 14.9453 13.373 14.836L14.834 13.368C14.9355 13.2665 14.9941 13.1299 14.9941 12.9854C14.9902 12.8449 14.9316 12.7082 14.8301 12.6067Z" fill="#8BC152"/>
</svg>
