<svg width="28" height="28" viewBox="0 0 28 28" fill="none" xmlns="http://www.w3.org/2000/svg">
<path d="M26.8922 15.4249C27.1445 15.1005 27.2671 14.6824 27.1553 14.2559L23.8428 1.70005C23.6505 0.974327 22.9044 0.539414 22.1799 0.731638L1.01286 6.31264C0.29075 6.5037 -0.145388 7.25226 0.0444403 7.97676L3.35703 20.5314C3.54686 21.2559 4.29659 21.6908 5.02115 21.501L12.5006 19.5281V23.7322C12.5006 26.0836 16.3971 27.3139 20.2491 27.3139C24.0988 27.3139 28 26.0836 28 23.7323V17.357C28 16.5916 27.5807 15.9476 26.8922 15.4249ZM24.4952 11.0971L24.8412 12.4043L20.6335 13.5157L20.2899 12.2061L24.4952 11.0971ZM22.0537 2.82588L22.7109 5.31543L16.1374 7.0504L15.4802 4.56085L22.0537 2.82588ZM19.104 12.5184L19.4404 13.7968C17.8845 13.8665 16.3706 14.1381 15.1546 14.6018L14.8975 13.631L19.104 12.5184ZM4.45517 17.7811L4.11155 16.4762L8.31803 15.3636L8.66404 16.6756L4.45517 17.7811ZM9.50395 15.0524L13.708 13.941L14.0264 15.139C13.9243 15.2014 13.8282 15.2663 13.7344 15.3324L9.84757 16.3585L9.50395 15.0524ZM26.5967 23.6288C26.5967 24.9997 23.7563 26.11 20.2491 26.11C16.7455 26.11 13.9027 24.9986 13.9027 23.6288V22.0849C13.9027 22.0332 13.9327 21.9864 13.9411 21.9371C14.1418 23.2372 16.874 24.268 20.2491 24.268C23.6254 24.268 26.3588 23.2371 26.5582 21.9371C26.5666 21.9864 26.5967 22.0333 26.5967 22.0849V23.6288ZM26.5967 20.5914C26.5967 21.9611 23.7563 23.0713 20.2491 23.0713C16.7455 23.0713 13.9027 21.9611 13.9027 20.5914V19.0475C13.9027 18.997 13.9327 18.9489 13.9411 18.8997C14.1418 20.1985 16.874 21.2318 20.2491 21.2318C23.6254 21.2318 26.3588 20.1985 26.5582 18.8997C26.5666 18.9489 26.5967 18.997 26.5967 19.0475V20.5914ZM20.249 19.8356C16.7455 19.8356 13.9027 18.7255 13.9027 17.3569C13.9027 15.9884 16.7454 14.8782 20.249 14.8782C23.7563 14.8782 26.5966 15.9884 26.5966 17.3569C26.5967 18.7255 23.7563 19.8356 20.249 19.8356Z" fill="#8BC152"/>
</svg>
