<svg width="256" height="203" viewBox="0 0 256 203" fill="none" xmlns="http://www.w3.org/2000/svg">
<path fill-rule="evenodd" clip-rule="evenodd" d="M131.602 0C176.907 0 213.634 35.6316 213.634 79.5917C213.634 87.1082 212.559 94.3821 210.551 101.275H200.784C203.055 94.4415 204.291 87.1577 204.291 79.5917C204.291 40.6426 171.747 9.06635 131.597 9.06635C91.4482 9.06635 58.9043 40.6426 58.9043 79.5917C58.9043 87.1577 60.1395 94.4415 62.4107 101.275H52.6436C50.6364 94.3821 49.5605 87.1082 49.5605 79.5917C49.5605 35.6365 86.2882 0 131.593 0H131.602Z" fill="#3CA132"/>
<path fill-rule="evenodd" clip-rule="evenodd" d="M207.224 111.108C194.643 139.387 165.645 159.183 131.876 159.183C98.1121 159.183 69.1145 139.387 56.5283 111.108H66.8334C78.7621 134.237 103.407 150.117 131.876 150.117C160.346 150.117 184.99 134.232 196.919 111.108H207.224Z" fill="#7BC03D"/>
<path fill-rule="evenodd" clip-rule="evenodd" d="M164.042 43.4751C101.943 74.9919 120.959 120.735 151.406 103.157C167.354 93.9466 167.304 58.6071 164.042 43.4751Z" fill="#E11061" stroke="#FEFEFE" stroke-width="0.666828" stroke-miterlimit="2.61313"/>
<path fill-rule="evenodd" clip-rule="evenodd" d="M99.1636 44.3911C161.263 75.9079 142.247 121.651 111.8 104.073C95.8515 94.8626 95.9013 59.5231 99.1636 44.3911Z" fill="#E11061" stroke="#FEFEFE" stroke-width="0.666828" stroke-miterlimit="2.61313"/>
<path fill-rule="evenodd" clip-rule="evenodd" d="M131.946 30.5215C94.8602 83.0776 130.308 115.728 147.571 88.0886C156.611 73.6101 141.196 42.5291 131.946 30.5215Z" fill="#E11061" stroke="#FEFEFE" stroke-width="0.666828" stroke-miterlimit="2.61313"/>
<path fill-rule="evenodd" clip-rule="evenodd" d="M177.704 56.7402C115.605 88.2571 134.621 134 165.068 116.422C181.016 107.212 180.966 71.8723 177.704 56.7402Z" fill="#E11061" stroke="#FEFEFE" stroke-width="0.666828" stroke-miterlimit="2.61313"/>
<path fill-rule="evenodd" clip-rule="evenodd" d="M85.5015 57.6562C147.601 89.1731 128.584 134.916 98.1375 117.338C82.1894 108.128 82.2392 72.7883 85.5015 57.6562Z" fill="#E11061" stroke="#FEFEFE" stroke-width="0.666828" stroke-miterlimit="2.61313"/>
<path fill-rule="evenodd" clip-rule="evenodd" d="M131.946 61.3599C94.8602 113.916 130.308 146.567 147.571 118.927C156.611 104.449 141.196 73.3674 131.946 61.3599Z" fill="#FEFEFE" stroke="#FEFEFE" stroke-width="0.666828" stroke-miterlimit="2.61313"/>
<path fill-rule="evenodd" clip-rule="evenodd" d="M131.946 65.4253C94.8602 117.981 130.308 150.632 147.571 122.992C156.611 108.514 141.196 77.4329 131.946 65.4253Z" fill="#E11061"/>
<path fill-rule="evenodd" clip-rule="evenodd" d="M165.8 123.552C197.985 96.3973 204.634 100.472 237.586 125.433C245.351 131.316 255.263 126.478 251.707 115.822C250.591 116.085 249.276 116.055 247.951 115.689C244.818 114.812 242.771 112.346 243.384 110.183C243.997 108.014 247.035 106.969 250.168 107.84C253.301 108.717 255.348 111.183 254.735 113.347C254.546 114.025 254.117 114.589 253.525 115.025C259.432 122.621 253.963 142.68 216.707 119.992C196.625 107.761 197.94 108.568 165.805 123.557L165.8 123.552Z" fill="#3CA132"/>
<path fill-rule="evenodd" clip-rule="evenodd" d="M89.7548 124.517C57.5696 97.3627 50.9204 101.438 17.9681 126.399C10.2032 132.281 0.291661 127.444 3.84787 116.788C4.96355 117.05 6.27845 117.02 7.60331 116.654C10.7362 115.778 12.7832 113.312 12.1706 111.148C11.558 108.979 8.51976 107.934 5.3869 108.806C2.25405 109.682 0.206989 112.148 0.819613 114.312C1.00888 114.99 1.43722 115.555 2.02992 115.991C-3.87718 123.586 1.59162 143.645 38.8472 120.957C58.9293 108.727 57.6144 109.534 89.7498 124.522L89.7548 124.517Z" fill="#3CA132"/>
<path d="M47.8126 179.094C47.8126 180.203 46.6172 184.14 44.2166 190.889C41.8159 197.648 40.6205 201.465 40.6205 202.361H35.8789C35.8789 201.421 35.1517 198.767 33.7023 194.409C32.1583 189.745 31.2867 186.665 31.0924 185.174H30.7836C30.5944 186.675 29.7875 189.779 28.378 194.479C27.0581 198.876 26.4006 201.5 26.4006 202.356H21.5494C21.5494 201.232 20.364 197.251 18.0032 190.403C15.6473 183.555 14.4619 179.787 14.4619 179.089H20.1598C20.1598 179.847 20.8422 182.832 22.2069 188.061C23.5766 193.295 24.2539 196.395 24.2539 197.375H24.5428C24.5428 196.395 25.275 193.35 26.7343 188.235C28.1937 183.12 28.9308 180.074 28.9308 179.094H34.051C34.051 179.99 34.7831 183.09 36.2425 188.393C37.7018 193.706 38.434 196.692 38.434 197.375H38.7229C38.7229 196.514 39.3853 193.597 40.7101 188.636C42.035 183.669 42.6974 180.485 42.6974 179.089H47.8026L47.8126 179.094ZM58.8747 202.361H53.7894C53.9438 198.668 54.0235 194.607 54.0235 190.195C54.0235 185.848 53.9438 182.144 53.7894 179.094H58.8747C58.7203 182.1 58.6406 185.798 58.6406 190.195C58.6406 194.686 58.7203 198.742 58.8747 202.361ZM82.523 196.018C82.523 200.678 79.1561 203 72.4272 203C70.141 203 68.0093 202.733 66.0469 202.183L66.9235 198.197C68.871 198.866 70.6989 199.197 72.4272 199.197C74.3398 199.197 75.7194 199.014 76.5562 198.648C77.3979 198.276 77.8213 197.652 77.8213 196.786C77.8213 195.88 77.4228 195.117 76.6309 194.498C75.9485 193.949 74.5639 193.236 72.477 192.354C70.5893 191.547 69.1748 190.666 68.2583 189.715C67.0978 188.512 66.5151 187.026 66.5151 185.264C66.5151 183.214 67.2771 181.614 68.8012 180.461C70.3303 179.307 72.5268 178.728 75.3907 178.728C77.7416 178.728 79.7089 178.921 81.3028 179.317L80.6353 183.283C79.0216 182.699 77.2734 182.412 75.3907 182.412C72.5617 182.412 71.1521 183.164 71.1521 184.664C71.1521 185.462 71.4759 186.11 72.1383 186.61C72.7161 187.036 73.9662 187.64 75.8937 188.418C77.9408 189.24 79.4748 190.146 80.4959 191.131C81.8506 192.453 82.528 194.087 82.528 196.028L82.523 196.018ZM108.562 202.361H103.477C103.591 198.415 103.656 194.998 103.656 192.102H94.6012C94.6012 194.701 94.656 198.123 94.7805 202.361H89.6952C89.8496 198.43 89.9293 194.37 89.9293 190.195C89.9293 185.972 89.8496 182.268 89.6952 179.094H94.7805C94.641 182.441 94.5663 185.541 94.5663 188.388H103.696C103.696 185.878 103.621 182.778 103.482 179.094H108.567C108.403 182.124 108.318 185.823 108.318 190.195C108.318 194.756 108.403 198.811 108.567 202.361H108.562ZM137.331 202.361H131.583C131.583 201.574 131.035 199.351 129.944 195.677H121.646C120.516 199.286 119.953 201.515 119.953 202.361H114.544C114.544 201.896 115.943 198.088 118.738 190.928C121.537 183.768 122.931 179.827 122.931 179.094H129.73C129.73 179.777 130.995 183.664 133.53 190.755C136.07 197.851 137.336 201.713 137.336 202.361H137.331ZM129.033 192.27C126.986 186.12 125.96 182.798 125.96 182.298H125.671C125.671 182.763 124.61 186.086 122.488 192.27H129.033ZM162.179 202.361H157.094C157.208 198.415 157.273 194.998 157.273 192.102H148.218C148.218 194.701 148.273 198.123 148.398 202.361H143.312C143.467 198.43 143.546 194.37 143.546 190.195C143.546 185.972 143.467 182.268 143.312 179.094H148.398C148.258 182.441 148.183 185.541 148.183 188.388H157.313C157.313 185.878 157.238 182.778 157.099 179.094H162.184C162.02 182.124 161.935 185.823 161.935 190.195C161.935 194.756 162.02 198.811 162.184 202.361H162.179ZM190.614 196.018C190.614 200.678 187.247 203 180.518 203C178.232 203 176.1 202.733 174.138 202.183L175.014 198.197C176.962 198.866 178.79 199.197 180.518 199.197C182.431 199.197 183.81 199.014 184.647 198.648C185.489 198.276 185.912 197.652 185.912 196.786C185.912 195.88 185.514 195.117 184.722 194.498C184.039 193.949 182.655 193.236 180.568 192.354C178.68 191.547 177.266 190.666 176.349 189.715C175.189 188.512 174.606 187.026 174.606 185.264C174.606 183.214 175.368 181.614 176.892 180.461C178.421 179.307 180.618 178.728 183.482 178.728C185.832 178.728 187.8 178.921 189.394 179.317L188.726 183.283C187.113 182.699 185.364 182.412 183.482 182.412C180.653 182.412 179.243 183.164 179.243 184.664C179.243 185.462 179.567 186.11 180.229 186.61C180.807 187.036 182.057 187.64 183.985 188.418C186.032 189.24 187.566 190.146 188.587 191.131C189.942 192.453 190.619 194.087 190.619 196.028L190.614 196.018ZM214.855 185.194C214.855 188.037 213.794 190.141 211.662 191.503C209.536 192.854 206.926 193.538 203.833 193.538C203.27 193.538 202.871 193.528 202.632 193.498C202.632 195.736 202.702 198.687 202.827 202.361H197.776C197.931 198.92 198.01 194.865 198.01 190.195C198.01 185.907 197.931 182.208 197.776 179.094H200.904C201.347 179.094 202.199 179.084 203.454 179.044C204.709 179.005 205.795 178.99 206.721 178.99C208.998 178.99 210.915 179.505 212.489 180.525C214.058 181.55 214.845 183.105 214.845 185.189L214.855 185.194ZM210.218 186.175C210.218 183.625 208.52 182.352 205.113 182.352C204.266 182.352 203.365 182.436 202.418 182.619C202.548 184.872 202.612 187.418 202.612 190.27C202.911 190.289 203.255 190.299 203.653 190.299C208.026 190.299 210.213 188.928 210.213 186.175H210.218ZM241.088 202.361H235.341C235.341 201.574 234.793 199.351 233.702 195.677H225.404C224.273 199.286 223.711 201.515 223.711 202.361H218.302C218.302 201.896 219.701 198.088 222.495 190.928C225.294 183.768 226.689 179.827 226.689 179.094H233.488C233.488 179.777 234.753 183.664 237.288 190.755C239.828 197.851 241.093 201.713 241.093 202.361H241.088ZM232.79 192.27C230.743 186.12 229.717 182.798 229.717 182.298H229.428C229.428 182.763 228.368 186.086 226.246 192.27H232.79Z" fill="#E11061"/>
</svg>
