<svg width="17" height="25" viewBox="0 0 17 25" fill="none" xmlns="http://www.w3.org/2000/svg">
<path d="M8.53624 25C9.37461 25 10.0552 24.3597 10.0552 23.5688C10.0552 22.7789 10.0552 22.1386 10.0552 22.1386C14.2024 21.7587 16.9477 19.5682 16.9477 16.0048V15.9465C16.9477 12.3248 14.6112 10.6603 9.96756 9.57999V6.19212C10.6361 6.35549 11.3284 6.587 12.005 6.8873C13.0939 7.36996 14.4171 7.06743 15.0782 5.98662C15.7399 4.90644 15.3825 3.38914 14.1568 2.83886C12.9362 2.29155 11.5967 1.91451 10.113 1.75232V0.875839C10.113 0.392647 9.43342 0 8.59452 0C7.75562 0 7.07552 0.373009 7.07552 0.831362C7.07552 1.29152 7.07552 1.66389 7.07552 1.66389C2.6062 1.98553 0.0947095 4.38036 0.0947095 7.82661V7.88552C0.0947095 11.5067 2.48955 13.114 7.19207 14.1937V17.6988C6.06392 17.517 4.95943 17.1423 3.83531 16.5683C2.63784 15.9574 1.17085 16.1735 0.445109 17.2461C-0.281166 18.3182 0.0121249 19.8413 1.21936 20.4337C2.99301 21.3049 4.99754 21.8741 7.01661 22.0809V23.541C7.01725 24.3464 7.69735 25 8.53624 25ZM9.93752 14.6614C11.4572 15.099 11.8947 15.5378 11.8947 16.3259V16.3848C11.8947 17.2318 11.2816 17.7277 9.93752 17.8744V14.6614ZM5.23489 7.4467V7.38843C5.23489 6.62925 5.79026 6.04489 7.22095 5.92834V9.083C5.64431 8.6447 5.23489 8.20588 5.23489 7.4467Z" fill="#8BC152"/>
</svg>
