<svg width="23" height="23" viewBox="0 0 23 23" fill="none" xmlns="http://www.w3.org/2000/svg">
<path d="M9.03308 13.6236H1.13856C0.510764 13.6236 0 13.1126 0 12.4848V1.13856C0 0.510764 0.510764 0 1.13856 0H9.03308C9.66088 0 10.1716 0.510764 10.1716 1.13856V12.4848C10.1719 13.1126 9.66113 13.6236 9.03308 13.6236Z" fill="currentColor"/>
<path d="M9.03308 22.7447H1.13856C0.510764 22.7447 0 22.234 0 21.6059V17.6348C0 17.007 0.510764 16.496 1.13856 16.496H9.03308C9.66088 16.496 10.1716 17.0068 10.1716 17.6348V21.6059C10.1719 22.234 9.66113 22.7447 9.03308 22.7447Z" fill="currentColor"/>
<path d="M21.5386 22.7445H13.6443C13.0165 22.7445 12.5055 22.2337 12.5055 21.6057V10.2594C12.5055 9.6316 13.0163 9.12083 13.6443 9.12083H21.5388C22.1666 9.12083 22.6776 9.6316 22.6776 10.2594V21.6057C22.6774 22.2337 22.1666 22.7445 21.5386 22.7445Z" fill="currentColor"/>
<path d="M21.5386 6.24847H13.6443C13.0165 6.24847 12.5055 5.7377 12.5055 5.10965V1.13856C12.5055 0.510764 13.0163 0 13.6443 0H21.5388C22.1666 0 22.6774 0.510764 22.6774 1.13856V5.10991C22.6774 5.7377 22.1666 6.24847 21.5386 6.24847Z" fill="currentColor"/>
</svg>
