<svg width="23" height="23" viewBox="0 0 23 23" fill="none" xmlns="http://www.w3.org/2000/svg">
<path d="M9.03308 13.6236H1.13856C0.510764 13.6236 0 13.1126 0 12.4848V1.13856C0 0.510764 0.510764 0 1.13856 0H9.03308C9.66088 0 10.1716 0.510764 10.1716 1.13856V12.4848C10.1719 13.1126 9.66113 13.6236 9.03308 13.6236Z" fill="#F05F97"/>
<path d="M9.03308 22.7448H1.13856C0.510764 22.7448 0 22.2341 0 21.606V17.6349C0 17.0071 0.510764 16.4961 1.13856 16.4961H9.03308C9.66088 16.4961 10.1716 17.0069 10.1716 17.6349V21.606C10.1719 22.2341 9.66113 22.7448 9.03308 22.7448Z" fill="#F05F97"/>
<path d="M21.5386 22.7445H13.6443C13.0165 22.7445 12.5055 22.2337 12.5055 21.6057V10.2594C12.5055 9.63161 13.0163 9.12085 13.6443 9.12085H21.5388C22.1666 9.12085 22.6776 9.63161 22.6776 10.2594V21.6057C22.6774 22.2337 22.1666 22.7445 21.5386 22.7445Z" fill="#F05F97"/>
<path d="M21.5386 6.24847H13.6443C13.0165 6.24847 12.5055 5.7377 12.5055 5.10965V1.13856C12.5055 0.510764 13.0163 0 13.6443 0H21.5388C22.1666 0 22.6774 0.510764 22.6774 1.13856V5.10991C22.6774 5.7377 22.1666 6.24847 21.5386 6.24847Z" fill="#F05F97"/>
</svg>
