<svg width="12" height="14" viewBox="0 0 12 14" fill="none" xmlns="http://www.w3.org/2000/svg">
<path d="M10.0613 1.67732H7.88207C7.77336 0.734666 6.97134 0 5.99999 0C5.02867 0 4.22677 0.734637 4.11806 1.67732H1.93873C1.05682 1.67732 0.339417 2.39492 0.339417 3.2768V3.35887C0.339417 4.0328 0.759043 4.60962 1.35018 4.84466V12.4005C1.35018 13.2824 2.06766 14 2.94952 14H9.05053C9.93241 14 10.6498 13.2824 10.6498 12.4005V4.84468C11.2409 4.60962 11.6606 4.0328 11.6606 3.3589V3.27683C11.6606 2.39492 10.9431 1.67732 10.0613 1.67732ZM5.99999 0.758549C6.55244 0.758549 7.01357 1.15452 7.1156 1.67732H4.88459C4.98659 1.1545 5.44775 0.758549 5.99999 0.758549ZM9.89129 12.4005C9.89129 12.8642 9.51403 13.2415 9.0505 13.2415H2.94949C2.48595 13.2415 2.1087 12.8642 2.1087 12.4005V4.95835H9.89129V12.4005ZM10.902 3.35887C10.902 3.82255 10.5248 4.19983 10.0613 4.19983H1.93873C1.47519 4.19983 1.09794 3.82255 1.09794 3.35887V3.2768C1.09794 2.81312 1.47519 2.43584 1.93873 2.43584H10.0613C10.5248 2.43584 10.9021 2.81312 10.9021 3.2768L10.902 3.35887Z" fill="#BE0505"/>
<path d="M3.96657 12.2713C4.17604 12.2713 4.34583 12.1015 4.34583 11.8921V7.62172C4.34583 7.41231 4.17601 7.24243 3.96657 7.24243C3.75713 7.24243 3.58731 7.41231 3.58731 7.62172V11.8921C3.58728 12.1015 3.75711 12.2713 3.96657 12.2713Z" fill="#BE0505"/>
<path d="M5.99999 12.2713C6.20945 12.2713 6.37928 12.1015 6.37928 11.8921V7.62172C6.37928 7.41231 6.20939 7.24243 5.99999 7.24243C5.79055 7.24243 5.62073 7.41231 5.62073 7.62172V11.8921C5.62073 12.1015 5.79052 12.2713 5.99999 12.2713Z" fill="#BE0505"/>
<path d="M8.0334 12.2713C8.24284 12.2713 8.41263 12.1015 8.41263 11.8921V7.62172C8.41263 7.41231 8.24281 7.24243 8.0334 7.24243C7.82391 7.24243 7.65411 7.41231 7.65411 7.62172V11.8921C7.65408 12.1015 7.82397 12.2713 8.0334 12.2713Z" fill="#BE0505"/>
</svg>
