<svg width="14" height="14" viewBox="0 0 14 14" fill="none" xmlns="http://www.w3.org/2000/svg">
<path d="M11.0273 5.17229C10.8366 5.17229 10.6819 5.32693 10.6819 5.51767V11.8246C10.6819 12.4911 10.1396 13.0335 9.47309 13.0335H1.89964C1.23315 13.0335 0.690784 12.4911 0.690784 11.8246V4.25114C0.690784 3.58466 1.23315 3.04232 1.89964 3.04232H9.47309C9.66382 3.04232 9.81846 2.88768 9.81846 2.69694C9.81846 2.5062 9.66382 2.35156 9.47309 2.35156H1.89964C0.852158 2.35156 0 3.20369 0 4.25114V11.8246C0 12.8721 0.852158 13.7242 1.89964 13.7242H9.47309C10.5205 13.7242 11.3727 12.8721 11.3727 11.8246V5.5177C11.3727 5.32696 11.2181 5.17229 11.0273 5.17229Z" fill="#96BF47"/>
<path d="M13.6872 0.588098C13.2708 0.171721 12.5933 0.171891 12.1773 0.588098L6.26127 6.5043C6.25335 6.51222 6.16414 6.60497 6.14103 6.65693L5.32176 8.49751C5.26358 8.62816 5.29189 8.78114 5.39308 8.8822C5.45918 8.94828 5.54755 8.98336 5.63744 8.98336C5.68482 8.98336 5.73254 8.97357 5.77774 8.95346L7.61834 8.1342C7.67011 8.11114 7.763 8.0219 7.77098 8.01398L13.6872 2.09797C13.8889 1.89626 14 1.62814 14 1.34295C14 1.0578 13.8889 0.789611 13.6872 0.588098ZM13.1988 1.60941L7.28256 7.52561C7.28157 7.52663 7.281 7.52782 7.28004 7.52864L6.31861 7.95664L6.74661 6.99524C6.74746 6.99422 6.74862 6.99369 6.74964 6.99269L12.6657 1.07652C12.8082 0.933985 13.0566 0.934155 13.1988 1.07666C13.27 1.14766 13.3092 1.24228 13.3092 1.34295C13.3092 1.44362 13.27 1.53821 13.1988 1.60941Z" fill="#96BF47"/>
</svg>
