<svg width="14" height="14" viewBox="0 0 14 14" fill="none" xmlns="http://www.w3.org/2000/svg">
<path d="M5.69529 0H5.69712V0.000818037C7.26928 0.00128549 8.69288 0.655364 9.72306 1.71227C10.7515 2.76765 11.3887 4.22656 11.3897 5.83786H11.3905V5.84172V5.84639H11.3897C11.3891 6.4958 11.2852 7.12078 11.0941 7.70357C11.0621 7.80138 11.0286 7.89534 10.9942 7.98509V7.98591C10.8295 8.41363 10.6165 8.81797 10.3622 9.19041L13.6756 12.2451L13.6777 12.2469L13.6956 12.264L13.6968 12.2653C13.8839 12.448 13.9858 12.6925 13.9986 12.9408C14.0112 13.1862 13.9368 13.4372 13.7732 13.6385L13.7719 13.6404L13.752 13.6641L13.748 13.6682L13.7313 13.6869L13.7295 13.6894C13.5512 13.8813 13.3132 13.9855 13.071 13.9986C12.8321 14.0116 12.5871 13.9355 12.3907 13.7674L12.389 13.7662L12.3657 13.7457L12.3624 13.7429L8.97349 10.6187C8.87323 10.6912 8.77092 10.76 8.66736 10.825C8.52688 10.9132 8.38138 10.9963 8.23293 11.0721C7.46969 11.4627 6.60722 11.6824 5.69541 11.6824V11.6832H5.69358V11.6824C4.12142 11.6819 2.6976 11.0278 1.66741 9.97093C0.638596 8.91555 0.00182293 7.45641 0.000797533 5.84557H0V5.84172V5.83985H0.000797533C0.00125327 4.22726 0.638938 2.76683 1.66935 1.71016C2.69828 0.655364 4.12062 0.0018698 5.69153 0.000818037V0H5.69529ZM5.69712 1.31003V1.31085H5.69529H5.69153V1.31003C4.47404 1.31085 3.37049 1.81838 2.57159 2.63747C1.7728 3.45656 1.27753 4.58965 1.27719 5.83997H1.27799V5.84183V5.84569H1.27719C1.27799 7.09448 1.77246 8.22583 2.57136 9.0455C3.36992 9.86494 4.47461 10.3729 5.69347 10.3732V10.3724H5.69529H5.69905V10.3732C6.91654 10.3724 8.01965 9.86506 8.81877 9.04573C9.61756 8.22665 10.1128 7.0939 10.1131 5.8437H10.1124V5.84183V5.83798H10.1131C10.1124 4.58919 9.61744 3.45726 8.819 2.63782C8.02044 1.81838 6.91609 1.31038 5.69712 1.31003Z" fill="#8BC152"/>
</svg>
