<svg width="24" height="24" viewBox="0 0 24 24" fill="none" xmlns="http://www.w3.org/2000/svg">
<path d="M12 24C14.5477 24 16.9818 23.2111 19.0392 21.7186C19.3929 21.462 19.4891 20.9762 19.2598 20.6042L17.3747 17.546C17.2527 17.3481 17.0538 17.21 16.8257 17.1649C16.5979 17.1197 16.3612 17.1717 16.173 17.3082C15.0501 18.1228 13.7211 18.5534 12.3298 18.5534C8.71621 18.5534 5.77641 15.6136 5.77641 12C5.77641 8.38645 8.71621 5.44664 12.3298 5.44664C13.7211 5.44664 15.0501 5.87727 16.173 6.6919C16.3612 6.82839 16.5977 6.88026 16.8257 6.83517C17.0537 6.79008 17.2526 6.65198 17.3747 6.45408L19.2598 3.39581C19.4892 3.02385 19.3929 2.53803 19.0392 2.28138C16.9819 0.788851 14.5477 0 12 0C5.38319 0 -1.71661e-05 5.38321 -1.71661e-05 12C-1.71661e-05 18.6169 5.38319 24 12 24ZM12 1.67055C13.9334 1.67055 15.7904 2.19815 17.4161 3.20308L16.3996 4.85214C15.1642 4.14579 13.7736 3.77601 12.3298 3.77601C7.79508 3.77601 4.10585 7.46532 4.10585 12C4.10585 16.5346 7.79516 20.2239 12.3298 20.2239C13.7735 20.2239 15.1642 19.8541 16.3996 19.1478L17.4161 20.7969C15.7905 21.8018 13.9334 22.3294 12 22.3294C6.30441 22.3294 1.67061 17.6957 1.67061 12C1.67061 6.30442 6.30433 1.67055 12 1.67055Z" fill="#F05F97"/>
<path d="M15.2838 8.32855C15.4547 8.07222 15.4706 7.74269 15.3253 7.47109C15.1799 7.19957 14.8968 7.02996 14.5888 7.02996H10.9135C10.6342 7.02996 10.3734 7.16951 10.2185 7.40192L7.46195 11.5366C7.27488 11.8172 7.27488 12.1828 7.46195 12.4633L10.2184 16.5981C10.3733 16.8305 10.6341 16.97 10.9134 16.97H14.5888C14.8968 16.97 15.1799 16.8004 15.3252 16.5289C15.4705 16.2573 15.4546 15.9277 15.2837 15.6714L14.3118 14.2136H21.48C22.7005 14.2136 23.6936 13.2206 23.6936 12C23.6936 10.7794 22.7006 9.78641 21.48 9.78641H14.3119L15.2838 8.32855ZM21.48 11.457C21.7794 11.457 22.023 11.7006 22.023 12C22.023 12.2994 21.7794 12.5429 21.48 12.5429H12.7511C12.4431 12.5429 12.16 12.7126 12.0147 12.9841C11.8693 13.2557 11.8852 13.5853 12.0561 13.8415L13.028 15.2994H11.3605L9.16095 12L11.3605 8.70059H13.028L12.0561 10.1585C11.8852 10.4148 11.8693 10.7443 12.0147 11.0159C12.1601 11.2874 12.4431 11.457 12.7511 11.457H21.48Z" fill="#F05F97"/>
</svg>
