<svg width="24" height="19" viewBox="0 0 24 19" fill="none" xmlns="http://www.w3.org/2000/svg">
<path d="M12.4097 10.2694H10.7019C10.6737 10.2694 10.6512 10.2806 10.6324 10.2976C10.6135 10.3164 10.6041 10.3408 10.6041 10.3672V13.9671C10.6041 13.9953 10.6154 14.0179 10.6324 14.0367C10.6512 14.0555 10.6756 14.0649 10.7019 14.0649H12.4079C12.4361 14.0649 12.4586 14.0536 12.4775 14.0367C12.4963 14.0179 12.5057 13.9934 12.5057 13.9671V10.3672C12.5057 10.3389 12.4944 10.3164 12.4775 10.2976C12.4605 10.2769 12.4361 10.2694 12.4097 10.2694ZM1.31282 2.62752H7.23557V0.929132C7.23557 0.671458 7.34089 0.440115 7.50829 0.272721C7.67756 0.105327 7.91079 0 8.1647 0H14.947C15.2047 0 15.4341 0.105327 15.6034 0.272721C15.7708 0.440115 15.8761 0.675219 15.8761 0.929132V2.62752H21.7989C22.1619 2.62752 22.4891 2.77611 22.7242 3.01498C22.9631 3.25384 23.1117 3.58111 23.1117 3.94035V7.11143C21.6277 8.12896 20.0967 8.99603 18.5187 9.70322C16.9313 10.4142 15.2949 10.9653 13.6022 11.3452V10.0775C13.6022 9.78786 13.4837 9.52078 13.2937 9.32894C13.1038 9.13897 12.8367 9.02048 12.5452 9.02048H10.5646C10.275 9.02048 10.0079 9.13897 9.81607 9.32894C9.62611 9.5189 9.50762 9.78598 9.50762 10.0775V11.317C7.86 10.9389 6.26318 10.3972 4.71525 9.70322C3.09397 8.97722 1.52348 8.08006 0 7.0268V3.94035C0 3.57735 0.148586 3.25008 0.387452 3.01498C0.624437 2.77611 0.953583 2.62752 1.31282 2.62752ZM23.1117 8.99227V17.599C23.1117 17.962 22.9631 18.2892 22.7242 18.5243C22.4854 18.7632 22.1581 18.9118 21.7989 18.9118H1.31282C0.949821 18.9118 0.622556 18.7632 0.387452 18.5243C0.148586 18.2855 0 17.9582 0 17.599V8.91327C1.29589 9.7446 2.62941 10.4706 4.00053 11.0856C5.7704 11.8793 7.60609 12.4869 9.5095 12.8931V14.2567C9.5095 14.5464 9.62799 14.8134 9.81795 15.0053C10.0079 15.1953 10.2769 15.3137 10.5665 15.3137H12.547C12.8367 15.3137 13.1038 15.1953 13.2956 15.0053C13.4856 14.8153 13.6041 14.5483 13.6041 14.2567V12.8273L13.6248 12.9138C15.5639 12.5057 17.4334 11.8925 19.2353 11.0838C20.5632 10.4894 21.8553 9.78974 23.1117 8.99227ZM14.2398 1.2658H8.87566C8.84368 1.2658 8.81735 1.27709 8.7929 1.30154C8.77409 1.32035 8.75716 1.35232 8.75716 1.38429V2.59179H14.3526V1.38429C14.3526 1.35232 14.3414 1.32599 14.3169 1.30154C14.2981 1.28273 14.2661 1.2658 14.2342 1.2658H14.2398Z" fill="currentColor"/>
</svg>
