<svg width="12" height="12" viewBox="0 0 12 12" fill="none" xmlns="http://www.w3.org/2000/svg">
<path d="M11.3333 5.01734H10.6667V0.333334C10.6667 0.149333 10.5171 0 10.3333 0H1.66667C1.48267 0 1.33333 0.149333 1.33333 0.333334V5.0168H0.666667C0.2984 5.0168 0 5.3152 0 5.68347V11.0168C0 11.3851 0.2984 11.6835 0.666667 11.6835H11.3333C11.7016 11.6835 12 11.3851 12 11.0168V5.68347C12 5.3152 11.7016 5.01734 11.3333 5.01734ZM8.67494 10.0003H3.3248V8.66694H8.67494V10.0003ZM10 5.01734H9.33334C8.96507 5.01734 8.66667 5.31574 8.66667 5.684V7.01734H3.33334V5.684C3.33334 5.31574 3.03494 5.01734 2.66667 5.01734H2V0.666667H10V5.01734ZM8.66667 2.1864H3.33334C3.14934 2.1864 3 2.03707 3 1.85307C3 1.66907 3.14934 1.51973 3.33334 1.51973H8.66667C8.85041 1.51973 9.00001 1.66907 9.00001 1.85307C9.00001 2.03707 8.85041 2.1864 8.66667 2.1864ZM8.66667 3.51974H3.33334C3.14934 3.51974 3 3.3704 3 3.1864C3 3.0024 3.14934 2.85307 3.33334 2.85307H8.66667C8.85041 2.85307 9.00001 3.0024 9.00001 3.1864C9.00001 3.3704 8.85041 3.51974 8.66667 3.51974ZM8.66667 4.85307H3.33334C3.14934 4.85307 3 4.70374 3 4.51974C3 4.33574 3.14934 4.1864 3.33334 4.1864H8.66667C8.85041 4.1864 9.00001 4.33574 9.00001 4.51974C9.00001 4.70374 8.85041 4.85307 8.66667 4.85307Z" fill="white"/>
</svg>
