<svg width="24" height="24" viewBox="0 0 24 24" fill="none" xmlns="http://www.w3.org/2000/svg">
<path d="M23.7641 14.1745C23.4392 13.5976 22.8255 13.2393 22.1626 13.2393C21.8495 13.2393 21.5386 13.3211 21.2637 13.4759L15.9126 16.4894C15.8428 16.5287 15.7924 16.5953 15.7732 16.6731C15.6799 17.0541 15.4602 17.586 14.944 17.9564C14.3727 18.3664 13.5999 18.4518 12.6582 18.2103C12.6525 18.2089 12.6469 18.2073 12.642 18.2057L9.55511 17.2473C9.36846 17.1893 9.26379 16.9903 9.32174 16.8037C9.36814 16.6544 9.50413 16.5541 9.66017 16.5541C9.69562 16.5541 9.73113 16.5596 9.76549 16.5702L12.8363 17.5237C12.8412 17.5252 12.8462 17.5266 12.8512 17.5279C13.5754 17.7107 14.141 17.6598 14.5306 17.3804C15.0228 17.0272 15.1095 16.4063 15.1197 16.3151C15.1201 16.3122 15.1205 16.3093 15.1206 16.3064C15.1208 16.3049 15.1209 16.3041 15.121 16.3039C15.121 16.3029 15.1211 16.3019 15.1212 16.301C15.1212 16.3004 15.1212 16.2998 15.1213 16.2992C15.1799 15.5336 14.6859 14.8267 13.9457 14.6177L13.9321 14.6136C13.9095 14.6062 11.6379 13.8642 10.1905 13.4512C10.0297 13.4054 9.58657 13.2987 8.94572 13.2987C8.04946 13.2987 6.71241 13.5111 5.42995 14.5249L0.107658 18.8301C-0.0140907 18.9285 -0.035682 19.1058 0.0588041 19.2307L2.94057 23.0372C2.98729 23.0988 3.05664 23.1393 3.13328 23.1496C3.1461 23.1513 3.15893 23.1522 3.17182 23.1522C3.23543 23.1522 3.29776 23.1312 3.34874 23.0919L7.06064 20.2338C7.14404 20.1697 7.25587 20.1455 7.35834 20.1697L13.3536 21.5865C13.7982 21.6915 14.2787 21.6237 14.6764 21.3995L23.0654 16.675C23.9474 16.1781 24.2608 15.0565 23.7641 14.1745Z" fill="currentColor"/>
<path d="M20.43 0.847656H9.47319C9.11729 0.847656 8.82867 1.13621 8.82867 1.49217V4.42498C8.82867 4.78095 9.11729 5.0695 9.47319 5.0695H9.71392V11.297C9.71392 11.653 10.0025 11.9415 10.3584 11.9415H19.5445C19.9004 11.9415 20.189 11.653 20.189 11.297V5.06943H20.4299C20.7858 5.06943 21.0744 4.78088 21.0744 4.42492V1.49217C21.0745 1.13621 20.7859 0.847656 20.43 0.847656ZM16.3073 6.60074H13.5957C13.3114 6.60074 13.0801 6.36942 13.0801 6.08513C13.0801 5.80083 13.3114 5.56952 13.5957 5.56952H16.3073C16.5916 5.56952 16.8229 5.80083 16.8229 6.08513C16.8229 6.36942 16.5916 6.60074 16.3073 6.60074ZM19.7855 3.7804H19.5445H10.3584H10.1177V2.13669H19.7855V3.7804Z" fill="currentColor"/>
</svg>
