<svg width="23" height="29" viewBox="0 0 23 29" fill="none" xmlns="http://www.w3.org/2000/svg">
<path d="M16.7834 13.5937C15.2163 14.9847 13.364 15.6153 11.1079 15.6153C8.85188 15.6153 6.99093 14.9672 5.42379 13.5762C2.95921 14.3866 0.0119333 16.4489 0.00866614 20.0507L1.94761e-06 26.7691C-0.00160454 28.0049 0.990826 29 2.22159 29H19.9943C21.2251 29 22.2159 28.005 22.2159 26.7691V20.0768C22.2159 16.9834 19.767 14.3755 16.7834 13.5937H16.7834Z" fill="#8BC152"/>
<path d="M17.7727 6.69229C17.7727 10.3883 14.7888 13.3846 11.1079 13.3846C7.42709 13.3846 4.44318 10.3883 4.44318 6.69229C4.44318 2.99626 7.42709 0 11.1079 0C14.7888 0 17.7727 2.99626 17.7727 6.69229Z" fill="#8BC152"/>
</svg>
