<svg width="21" height="23" viewBox="0 0 21 23" fill="none" xmlns="http://www.w3.org/2000/svg">
<path d="M10.5 11.1516C9.6729 11.1516 9 11.7769 9 12.5456C9 13.3142 9.6729 13.9395 10.5 13.9395C11.3271 13.9395 12 13.3142 12 12.5456C12 11.7769 11.3271 11.1516 10.5 11.1516Z" fill="#F05F97"/>
<path d="M19.875 0H15.375H1.125C0.5037 0 0 0.468085 0 1.04545V21.9545C0 22.5319 0.5037 23 1.125 23H15.375H19.875C20.4963 23 21 22.5319 21 21.9545V1.04545C21 0.468085 20.4963 0 19.875 0ZM2.25 2.09091H14.25V20.9091H2.25V2.09091ZM18.75 20.9091H16.5V2.09091H18.75V20.9091Z" fill="#F05F97"/>
</svg>
