<svg width="24" height="24" viewBox="0 0 24 24" fill="none" xmlns="http://www.w3.org/2000/svg">
<path d="M10.221 10.855C9.41585 10.855 8.76083 11.4637 8.76083 12.2119C8.76083 12.9601 9.41585 13.5688 10.221 13.5688C11.0261 13.5688 11.6811 12.9601 11.6811 12.2119C11.6811 11.4637 11.0261 10.855 10.221 10.855Z" fill="white"/>
<path d="M19.3469 0H14.9664H1.0951C0.490315 0 0 0.455646 0 1.01767V21.3711C0 21.9332 0.490315 22.3888 1.0951 22.3888H14.9664H19.3469C19.9516 22.3888 20.442 21.9332 20.442 21.3711V1.01767C20.442 0.455646 19.9516 0 19.3469 0ZM2.19021 2.03535H13.8713V20.3535H2.19021V2.03535ZM18.2517 20.3535H16.0615V2.03535H18.2517V20.3535Z" fill="white"/>
<circle cx="18.3273" cy="18.3275" r="5.67273" fill="#8BC152"/>
<path d="M18.3273 13.5264C15.6873 13.5264 13.5273 15.6864 13.5273 18.3264C13.5273 20.9664 15.6873 23.1264 18.3273 23.1264C20.9673 23.1264 23.1273 20.9664 23.1273 18.3264C23.1273 15.6864 20.9673 13.5264 18.3273 13.5264ZM20.1273 18.9264H18.9273V20.1264C18.9273 20.4864 18.6873 20.7264 18.3273 20.7264C17.9673 20.7264 17.7273 20.4864 17.7273 20.1264V18.9264H16.5273C16.1673 18.9264 15.9273 18.6864 15.9273 18.3264C15.9273 17.9664 16.1673 17.7264 16.5273 17.7264H17.7273V16.5264C17.7273 16.1664 17.9673 15.9264 18.3273 15.9264C18.6873 15.9264 18.9273 16.1664 18.9273 16.5264V17.7264H20.1273C20.4873 17.7264 20.7273 17.9664 20.7273 18.3264C20.7273 18.6864 20.4873 18.9264 20.1273 18.9264Z" fill="white"/>
</svg>
