<svg width="168" height="88" viewBox="0 0 168 88" fill="none" xmlns="http://www.w3.org/2000/svg">
<g filter="url(#filter0_d_902_784)">
<rect x="9" y="5" width="150" height="70" rx="6" fill="white"/>
</g>
<path d="M91.416 46.176C89.5547 46.176 87.8347 45.568 86.256 44.352L87.392 42.072C88.128 42.6587 88.8533 43.0907 89.568 43.368C90.288 43.64 90.9147 43.776 91.448 43.776C92.3867 43.776 92.856 43.4693 92.856 42.856C92.856 42.44 92.6373 42.1307 92.2 41.928C91.9547 41.8213 91.736 41.736 91.544 41.672C89.9227 41.224 88.864 40.8507 88.368 40.552C87.4293 39.9973 86.96 39.1707 86.96 38.072C86.96 36.936 87.376 36.0693 88.208 35.472C89.0453 34.8747 90.12 34.576 91.432 34.576C93.096 34.576 94.5867 34.9973 95.904 35.84L94.8 38.168C93.408 37.3733 92.2053 36.976 91.192 36.976C90.4133 36.976 90.024 37.2347 90.024 37.752C90.024 38.0507 90.1893 38.3093 90.52 38.528C90.8507 38.7467 91.384 38.9467 92.12 39.128C92.9947 39.352 93.8453 39.704 94.672 40.184C95.504 40.728 95.92 41.56 95.92 42.68C95.92 43.464 95.7147 44.1147 95.304 44.632C94.8613 45.1707 94.296 45.5627 93.608 45.808C92.92 46.0533 92.1893 46.176 91.416 46.176ZM99.6885 46.128C98.6858 46.128 97.9418 45.864 97.4565 45.336C96.9712 44.808 96.7285 44.1707 96.7285 43.424C96.7285 41.7813 97.8325 40.9067 100.041 40.8H102.297C102.297 39.872 101.747 39.408 100.649 39.408C99.9125 39.408 99.0485 39.6373 98.0565 40.096L97.2725 38.176C98.5845 37.5467 99.9285 37.232 101.305 37.232C102.382 37.232 103.267 37.4827 103.961 37.984C104.654 38.4853 105.033 39.28 105.097 40.368V46H102.297V45.024C101.742 45.76 100.873 46.128 99.6885 46.128ZM100.569 44.192C101.07 44.192 101.459 44.0853 101.737 43.872C102.019 43.6533 102.206 43.3867 102.297 43.072V42.32H100.601C99.8005 42.32 99.4005 42.6187 99.4005 43.216C99.4005 43.4827 99.4912 43.712 99.6725 43.904C99.8538 44.096 100.153 44.192 100.569 44.192ZM111.924 46H108.996L105.764 37.344H108.692L110.5 43.36L112.324 37.344H115.172L111.924 46ZM117.559 36.416C117.058 36.416 116.682 36.2613 116.431 35.952C116.18 35.6427 116.055 35.2907 116.055 34.896C116.055 34.384 116.207 34.0027 116.511 33.752C116.815 33.5013 117.164 33.376 117.559 33.376C117.948 33.376 118.295 33.5013 118.599 33.752C118.903 34.0027 119.055 34.384 119.055 34.896C119.055 35.2907 118.93 35.6427 118.679 35.952C118.428 36.2613 118.055 36.416 117.559 36.416ZM118.959 46H116.135V37.36H118.959V46ZM129.967 46H127.143V41.368C127.143 40.8133 126.996 40.4107 126.703 40.16C126.41 39.9093 126.066 39.784 125.671 39.784C124.679 39.848 124.114 40.3973 123.975 41.432V46H121.135V37.36H123.975V38.76C124.636 37.752 125.591 37.248 126.839 37.248C127.367 37.248 127.868 37.3573 128.343 37.576C128.818 37.7947 129.212 38.1547 129.527 38.656C129.82 39.1413 129.967 39.7733 129.967 40.552V46ZM135.5 49.216C133.985 49.216 132.695 48.8427 131.628 48.096L132.62 46.128C133.473 46.6933 134.364 46.976 135.292 46.976C136.039 46.976 136.572 46.808 136.892 46.472C137.212 46.136 137.372 45.7493 137.372 45.312V44.384C136.807 45.1413 135.985 45.52 134.908 45.52C134.465 45.52 134.023 45.4453 133.58 45.296C133.143 45.1467 132.745 44.9093 132.388 44.584C132.036 44.2587 131.751 43.8293 131.532 43.296C131.319 42.7627 131.212 42.112 131.212 41.344C131.212 40.448 131.377 39.696 131.708 39.088C132.06 38.4533 132.511 37.9893 133.06 37.696C133.615 37.3973 134.209 37.248 134.844 37.248C135.932 37.248 136.775 37.632 137.372 38.4V37.344H140.204V45.232C140.204 46.5227 139.756 47.5093 138.86 48.192C137.964 48.8747 136.844 49.216 135.5 49.216ZM135.628 43.44C136.225 43.44 136.665 43.2373 136.948 42.832C137.231 42.4267 137.372 41.9573 137.372 41.424C137.372 40.8427 137.217 40.36 136.908 39.976C136.604 39.5867 136.177 39.392 135.628 39.392C135.052 39.392 134.615 39.5947 134.316 40C134.017 40.4053 133.868 40.88 133.868 41.424C133.868 41.9573 134.015 42.4267 134.308 42.832C134.601 43.2373 135.041 43.44 135.628 43.44Z" fill="black"/>
<path d="M69 39.5C69 50.8218 59.8218 60 48.5 60C37.1782 60 28 50.8218 28 39.5C28 28.1782 37.1782 19 48.5 19C59.8218 19 69 28.1782 69 39.5ZM31.6312 39.5C31.6312 48.8164 39.1836 56.3688 48.5 56.3688C57.8164 56.3688 65.3688 48.8164 65.3688 39.5C65.3688 30.1836 57.8164 22.6312 48.5 22.6312C39.1836 22.6312 31.6312 30.1836 31.6312 39.5Z" fill="#EDEDED"/>
<path d="M49.2764 59.9853C54.5195 59.7866 59.4868 57.5851 63.1555 53.8341C66.8242 50.0831 68.9151 45.0682 68.9975 39.822C69.0799 34.5758 67.1476 29.4977 63.5985 25.6333C60.0494 21.7689 55.1537 19.4125 49.9194 19.0492L49.668 22.6717C53.9751 22.9706 58.0037 24.9096 60.9241 28.0895C63.8445 31.2694 65.4346 35.448 65.3667 39.7649C65.2989 44.0819 63.5785 48.2085 60.5596 51.2951C57.5407 54.3817 53.4532 56.1932 49.1389 56.3567L49.2764 59.9853Z" fill="#8BC152"/>
<defs>
<filter id="filter0_d_902_784" x="0" y="0" width="168" height="88" filterUnits="userSpaceOnUse" color-interpolation-filters="sRGB">
<feFlood flood-opacity="0" result="BackgroundImageFix"/>
<feColorMatrix in="SourceAlpha" type="matrix" values="0 0 0 0 0 0 0 0 0 0 0 0 0 0 0 0 0 0 127 0" result="hardAlpha"/>
<feMorphology radius="1" operator="dilate" in="SourceAlpha" result="effect1_dropShadow_902_784"/>
<feOffset dy="4"/>
<feGaussianBlur stdDeviation="4"/>
<feComposite in2="hardAlpha" operator="out"/>
<feColorMatrix type="matrix" values="0 0 0 0 0 0 0 0 0 0 0 0 0 0 0 0 0 0 0.25 0"/>
<feBlend mode="normal" in2="BackgroundImageFix" result="effect1_dropShadow_902_784"/>
<feBlend mode="normal" in="SourceGraphic" in2="effect1_dropShadow_902_784" result="shape"/>
</filter>
</defs>
</svg>
