<svg width="23" height="22" viewBox="0 0 23 22" fill="none" xmlns="http://www.w3.org/2000/svg">
<path d="M9.14456 0.347778H9.14748V0.349036C11.6718 0.349754 13.9576 1.35525 15.6117 2.97999C17.263 4.6024 18.286 6.84513 18.2876 9.32213H18.2889V9.32806V9.33525H18.2876C18.2867 10.3336 18.1199 11.2943 17.8131 12.1902C17.7617 12.3406 17.7079 12.485 17.6527 12.623V12.6243C17.3882 13.2818 17.0463 13.9034 16.6379 14.4759L21.9581 19.1717L21.9614 19.1746L21.9901 19.2008L21.9921 19.2028C22.2925 19.4836 22.456 19.8596 22.4767 20.2412C22.4968 20.6184 22.3773 21.0043 22.1147 21.3139L22.1126 21.3167L22.0806 21.3532L22.0742 21.3595L22.0475 21.3882L22.0446 21.392C21.7583 21.687 21.3761 21.8472 20.9872 21.8674C20.6036 21.8873 20.2103 21.7704 19.8949 21.512L19.8922 21.51L19.8549 21.4786L19.8495 21.4743L14.4081 16.6716C14.2472 16.7829 14.0829 16.8888 13.9166 16.9886C13.691 17.1243 13.4574 17.252 13.2191 17.3686C11.9936 17.969 10.6088 18.3067 9.14474 18.3067V18.308H9.14181V18.3067C6.61749 18.306 4.33135 17.3005 2.67725 15.6758C1.02535 14.0534 0.00292696 11.8103 0.00128055 9.33399H0V9.32806V9.32518H0.00128055C0.00201229 6.84621 1.0259 4.60114 2.68036 2.97676C4.33245 1.35525 6.61621 0.350653 9.13852 0.349036V0.347778H9.14456ZM9.14748 2.36164V2.3629H9.14456H9.13852V2.36164C7.18368 2.3629 5.41177 3.14311 4.12903 4.40227C2.84647 5.66143 2.05125 7.4033 2.0507 9.32537H2.05198V9.32824V9.33417H2.0507C2.05198 11.2539 2.84592 12.9931 4.12866 14.2531C5.41085 15.5128 7.18459 16.2938 9.14163 16.2941V16.2929H9.14456H9.15059V16.2941C11.1054 16.2929 12.8766 15.513 14.1597 14.2535C15.4423 12.9943 16.2375 11.253 16.2379 9.33111H16.2368V9.32824V9.32231H16.2379C16.2368 7.40258 15.4421 5.66251 14.1601 4.40281C12.8779 3.14311 11.1047 2.36218 9.14748 2.36164Z" fill="black"/>
</svg>
