<svg width="22" height="28" viewBox="0 0 22 28" fill="none" xmlns="http://www.w3.org/2000/svg">
<path d="M15.7839 4.07098H13.1202V3.56053C13.1202 2.9037 12.5858 2.36934 11.929 2.36934H11.7819C11.5091 1.01949 10.3138 0 8.88475 0C7.45566 0 6.26032 1.01949 5.98749 2.36934H5.84022C5.18339 2.36934 4.64902 2.9037 4.64902 3.56053V4.07098H1.98533C0.890575 4.07098 0 4.96165 0 6.05631V23.1712C0 24.2658 0.890575 25.1565 1.98533 25.1565H15.7839C16.8786 25.1565 17.7692 24.2658 17.7692 23.1712V6.05631C17.7692 4.96156 16.8787 4.07098 15.7839 4.07098ZM5.97258 3.69289H11.7967V5.86096H5.97258V3.69289ZM8.88475 1.32355C9.57794 1.32355 10.17 1.75865 10.4064 2.36934H7.36319C7.59949 1.75865 8.19156 1.32355 8.88475 1.32355ZM16.4457 23.1712C16.4457 23.5361 16.1488 23.833 15.7839 23.833H1.98533C1.62038 23.833 1.32355 23.5361 1.32355 23.1712V6.05631C1.32355 5.69137 1.62038 5.39454 1.98533 5.39454H4.64902V5.99331C4.64902 6.65015 5.18339 7.18451 5.84022 7.18451H11.9291C12.5859 7.18451 13.1203 6.65015 13.1203 5.99331V5.39454H15.784C16.1489 5.39454 16.4458 5.69137 16.4458 6.05631V23.1712H16.4457Z" fill="white"/>
<path d="M13.3548 9.52344H4.41449C4.04902 9.52344 3.75272 9.81965 3.75272 10.1852C3.75272 10.5507 4.04902 10.847 4.41449 10.847H13.3548C13.7204 10.847 14.0166 10.5507 14.0166 10.1852C14.0166 9.81965 13.7204 9.52344 13.3548 9.52344Z" fill="white"/>
<path d="M13.3548 12.8174H4.41449C4.04902 12.8174 3.75272 13.1136 3.75272 13.4792C3.75272 13.8447 4.04902 14.1409 4.41449 14.1409H13.3548C13.7204 14.1409 14.0166 13.8447 14.0166 13.4792C14.0166 13.1136 13.7204 12.8174 13.3548 12.8174Z" fill="white"/>
<path d="M13.3548 16.1111H4.41449C4.04902 16.1111 3.75272 16.4073 3.75272 16.7729C3.75272 17.1384 4.04902 17.4346 4.41449 17.4346H13.3548C13.7204 17.4346 14.0166 17.1384 14.0166 16.7729C14.0166 16.4073 13.7204 16.1111 13.3548 16.1111Z" fill="white"/>
<circle cx="16.5" cy="22.2117" r="5.5" fill="#8BC152"/>
<path d="M16.5 17.8115C14.08 17.8115 12.1 19.7915 12.1 22.2115C12.1 24.6315 14.08 26.6115 16.5 26.6115C18.92 26.6115 20.9 24.6315 20.9 22.2115C20.9 19.7915 18.92 17.8115 16.5 17.8115ZM18.15 22.7615H17.05V23.8615C17.05 24.1915 16.83 24.4115 16.5 24.4115C16.17 24.4115 15.95 24.1915 15.95 23.8615V22.7615H14.85C14.52 22.7615 14.3 22.5415 14.3 22.2115C14.3 21.8815 14.52 21.6615 14.85 21.6615H15.95V20.5615C15.95 20.2315 16.17 20.0115 16.5 20.0115C16.83 20.0115 17.05 20.2315 17.05 20.5615V21.6615H18.15C18.48 21.6615 18.7 21.8815 18.7 22.2115C18.7 22.5415 18.48 22.7615 18.15 22.7615Z" fill="white"/>
</svg>
