<svg width="20" height="20" viewBox="0 0 20 20" fill="none" xmlns="http://www.w3.org/2000/svg">
<path opacity="0.4" d="M16.2742 17.0469L16.2741 17.0468L16.263 17.0548C15.6709 17.4881 14.9013 17.7554 13.954 17.8175C13.796 17.8258 13.6425 17.8334 13.4916 17.8334H6.50829C5.09106 17.8334 4.01989 17.4128 3.30351 16.6965C2.58714 15.9801 2.16663 14.9089 2.16663 13.4917V6.50835C2.16663 5.34642 2.44685 4.42301 2.94618 3.73552L2.94629 3.7356L2.95307 3.72578C3.16035 3.42559 3.42553 3.16041 3.72572 2.95314L3.7258 2.95325L3.73546 2.94624C4.42295 2.44691 5.34636 2.16669 6.50829 2.16669H13.4916C13.6421 2.16669 13.7912 2.17423 13.931 2.18894L13.9411 2.19001L13.9513 2.19067C15.2144 2.27153 16.1703 2.7166 16.8126 3.42619C17.4568 4.13785 17.8333 5.16853 17.8333 6.50835V13.4917C17.8333 14.6536 17.5531 15.577 17.0537 16.2645L17.0536 16.2644L17.0468 16.2743C16.8396 16.5744 16.5744 16.8396 16.2742 17.0469Z" fill="white" stroke="white"/>
<path d="M13.4833 17.8334H13.2333V2.16669H13.4833V17.8334Z" fill="white" stroke="white"/>
<path d="M7.43777 7.95568L7.43778 7.95568L7.4369 7.9548C7.41538 7.93328 7.4021 7.90254 7.4021 7.86669C7.4021 7.83084 7.41538 7.8001 7.4369 7.77858C7.45843 7.75705 7.48917 7.74377 7.52502 7.74377C7.56087 7.74377 7.5916 7.75705 7.61313 7.77858L9.74646 9.91191C9.76799 9.93344 9.78127 9.96417 9.78127 10C9.78127 10.0359 9.76799 10.0666 9.74646 10.0881L7.61313 12.2215C7.59845 12.2362 7.5844 12.2446 7.57154 12.2498C7.55822 12.2551 7.5427 12.2584 7.52502 12.2584C7.49983 12.2584 7.48265 12.254 7.47224 12.2498C7.46271 12.2459 7.45562 12.2411 7.44888 12.2339L7.443 12.2276L7.4369 12.2215C7.41538 12.1999 7.4021 12.1692 7.4021 12.1334C7.4021 12.0975 7.41538 12.0668 7.4369 12.0452L7.43777 12.0444L9.12111 10.3527L9.47205 10L9.12111 9.64735L7.43777 7.95568Z" fill="white" stroke="white"/>
</svg>
