<svg width="26" height="22" viewBox="0 0 26 22" fill="none" xmlns="http://www.w3.org/2000/svg">
<path d="M11.126 9.20701H9.59488C9.56958 9.20701 9.54935 9.21712 9.53249 9.2323C9.51562 9.24916 9.50719 9.27108 9.50719 9.29469V12.5222C9.50719 12.5475 9.51731 12.5677 9.53249 12.5846C9.54935 12.6015 9.57127 12.6099 9.59488 12.6099H11.1243C11.1496 12.6099 11.1698 12.5998 11.1867 12.5846C11.2036 12.5677 11.212 12.5458 11.212 12.5222V9.29469C11.212 9.2694 11.2019 9.24916 11.1867 9.2323C11.1715 9.21375 11.1496 9.20701 11.126 9.20701ZM1.17704 2.35571H6.48709V0.833015C6.48709 0.601997 6.58152 0.394586 6.7316 0.244508C6.88336 0.0944308 7.09246 0 7.32011 0H13.4008C13.6318 0 13.8375 0.0944308 13.9893 0.244508C14.1394 0.394586 14.2338 0.605369 14.2338 0.833015V2.35571H19.5438C19.8693 2.35571 20.1627 2.48893 20.3735 2.70308C20.5876 2.91724 20.7209 3.21065 20.7209 3.53272V6.37577C19.3904 7.28804 18.0178 8.0654 16.603 8.69944C15.1798 9.33685 13.7127 9.83092 12.1951 10.1715V9.03501C12.1951 8.77532 12.0889 8.53587 11.9186 8.36387C11.7482 8.19356 11.5088 8.08733 11.2474 8.08733H9.47178C9.2121 8.08733 8.97265 8.19356 8.80065 8.36387C8.63033 8.53419 8.5241 8.77364 8.5241 9.03501V10.1463C7.04693 9.80731 5.61529 9.32167 4.2275 8.69944C2.77394 8.04854 1.36591 7.24419 3.05176e-05 6.29989V3.53272C3.05176e-05 3.20728 0.133245 2.91387 0.347401 2.70308C0.55987 2.48893 0.854967 2.35571 1.17704 2.35571ZM20.7209 8.06203V15.7784C20.7209 16.1038 20.5876 16.3972 20.3735 16.608C20.1593 16.8222 19.8659 16.9554 19.5438 16.9554H1.17704C0.851594 16.9554 0.558184 16.8222 0.347401 16.608C0.133245 16.3939 3.05176e-05 16.1005 3.05176e-05 15.7784V7.99121C1.16187 8.73654 2.35743 9.38744 3.58672 9.93884C5.17349 10.6504 6.81929 11.1951 8.52579 11.5593V12.7819C8.52579 13.0416 8.63202 13.281 8.80233 13.453C8.97265 13.6233 9.21378 13.7296 9.47347 13.7296H11.2491C11.5088 13.7296 11.7482 13.6233 11.9202 13.453C12.0906 13.2827 12.1968 13.0433 12.1968 12.7819V11.5003L12.2153 11.5779C13.9539 11.212 15.63 10.6623 17.2455 9.93716C18.436 9.4043 19.5944 8.77701 20.7209 8.06203ZM12.7667 1.13486H7.95751C7.92885 1.13486 7.90524 1.14497 7.88332 1.1669C7.86646 1.18376 7.85128 1.21242 7.85128 1.24109V2.32367H12.8679V1.24109C12.8679 1.21242 12.8578 1.18882 12.8359 1.1669C12.819 1.15003 12.7904 1.13486 12.7617 1.13486H12.7667Z" fill="white"/>
<circle cx="20.1724" cy="15.6899" r="5.82759" fill="#8BC152"/>
<path d="M20.1725 10.7583C17.4604 10.7583 15.2414 12.9773 15.2414 15.6893C15.2414 18.4014 17.4604 20.6204 20.1725 20.6204C22.8845 20.6204 25.1035 18.4014 25.1035 15.6893C25.1035 12.9773 22.8845 10.7583 20.1725 10.7583ZM22.0216 16.3057H20.7888V17.5385C20.7888 17.9083 20.5423 18.1549 20.1725 18.1549C19.8026 18.1549 19.5561 17.9083 19.5561 17.5385V16.3057H18.3233C17.9535 16.3057 17.7069 16.0592 17.7069 15.6893C17.7069 15.3195 17.9535 15.073 18.3233 15.073H19.5561V13.8402C19.5561 13.4704 19.8026 13.2238 20.1725 13.2238C20.5423 13.2238 20.7888 13.4704 20.7888 13.8402V15.073H22.0216C22.3914 15.073 22.638 15.3195 22.638 15.6893C22.638 16.0592 22.3914 16.3057 22.0216 16.3057Z" fill="white"/>
</svg>
