<svg width="20" height="20" viewBox="0 0 20 20" fill="none" xmlns="http://www.w3.org/2000/svg">
<path d="M10 0C4.487 0 0 4.4865 0 10C0 15.5135 4.487 20 10 20C15.5145 20 20 15.5135 20 10C20 4.4865 15.5145 0 10 0ZM14.409 8.9375L10.128 13.2195C9.83 13.517 9.4395 13.666 9.049 13.666C8.6595 13.666 8.2685 13.517 7.971 13.2195L5.592 10.8405C4.9965 10.245 4.9965 9.2785 5.592 8.684C6.1875 8.088 7.1525 8.088 7.749 8.684L9.049 9.984L12.253 6.7805C12.847 6.186 13.8145 6.186 14.409 6.7805C15.005 7.376 15.005 8.342 14.409 8.9375Z" fill="white"/>
</svg>
