<svg width="24" height="25" viewBox="0 0 24 25" fill="none" xmlns="http://www.w3.org/2000/svg">
<path fill-rule="evenodd" clip-rule="evenodd" d="M1.78245 0H22.2153C22.6885 0.000536721 23.1421 0.172943 23.4766 0.479405C23.8112 0.785866 23.9994 1.20136 24 1.63477V17.3902C23.9982 17.8231 23.8096 18.2377 23.4752 18.5436C23.1408 18.8495 22.6879 19.0218 22.2153 19.0229H13.8544V18.9905C13.8544 18.7166 13.8544 18.4489 13.8411 18.0007H22.4456C22.5104 18.0007 22.5745 17.989 22.6342 17.9662C22.694 17.9435 22.7483 17.9101 22.794 17.8681C22.8397 17.8261 22.8758 17.7762 22.9004 17.7213C22.925 17.6664 22.9375 17.6077 22.9372 17.5484V3.94696H1.13368V17.5484C1.13325 17.5867 1.13846 17.6249 1.14918 17.662C1.12236 17.7677 1.10826 17.8759 1.10711 17.9844C1.10105 18.2758 1.16611 18.5648 1.29754 18.8302C1.32011 18.8793 1.34676 18.9268 1.37725 18.9722C0.987684 18.8874 0.640354 18.6856 0.390713 18.3988C0.141071 18.112 0.00351319 17.7569 0 17.3902L0 1.63477C0.000584374 1.20171 0.188495 0.786523 0.52258 0.480119C0.856664 0.173716 1.30969 0.00107291 1.78245 0ZM5.95184 14.0091C6.05337 14.0027 6.15524 14.0155 6.25117 14.0466C6.3471 14.0777 6.43503 14.1265 6.50954 14.19C6.58404 14.2535 6.64354 14.3304 6.68434 14.4158C6.72514 14.5011 6.74638 14.5933 6.74675 14.6865V19.031H7.22723V16.8993C7.22723 16.0373 8.71077 16.0637 8.71077 16.948V19.0777H8.73291H9.25325V17.378C9.25325 16.516 10.7368 16.5424 10.7368 17.4247V18.9986H11.2593V17.7999C11.2593 16.9379 12.7429 16.9642 12.7429 17.8465C12.7429 18.8404 12.8049 20.0127 12.765 21.0045C12.7229 22.0937 12.4772 23.3208 11.6158 24.0063C11.167 24.3673 10.6362 24.6324 10.0617 24.7822C9.48723 24.9319 8.88357 24.9628 8.29449 24.8724C6.25297 24.5762 5.73706 23.4303 4.76502 22.0186L2.29615 18.4367C2.14337 18.1102 2.1633 17.8891 2.31608 17.7471C2.98035 17.3577 4.03875 18.1852 5.22115 19.3555H5.26322V14.6399C5.2638 14.4727 5.33654 14.3126 5.46555 14.1944C5.59457 14.0763 5.76939 14.0096 5.95184 14.0091ZM3.82618 8.17383C3.72377 8.01626 3.69127 7.82871 3.73536 7.64984C3.77946 7.47097 3.8968 7.31442 4.0632 7.21246C4.22959 7.1105 4.43235 7.07091 4.62967 7.10185C4.82699 7.13279 5.00382 7.23191 5.12372 7.37876L5.54664 7.80469L6.78882 6.38492C6.92036 6.2386 7.10997 6.14614 7.31593 6.12789C7.5219 6.10963 7.72734 6.16707 7.88707 6.28756C8.04681 6.40805 8.14774 6.58174 8.16767 6.7704C8.1876 6.95906 8.1249 7.14725 7.99336 7.29357L6.11569 9.36035C6.0632 9.4229 6.00046 9.47764 5.9297 9.52261C5.84398 9.57471 5.74787 9.61081 5.64689 9.62881C5.54591 9.64682 5.44204 9.64639 5.34124 9.62755C5.24044 9.6087 5.14469 9.57182 5.05949 9.519C4.97429 9.46619 4.9013 9.39849 4.84473 9.31979L3.82618 8.16774V8.17383ZM19.514 13.9077C19.7236 13.8977 19.921 13.8144 20.0656 13.6749C20.2101 13.5355 20.2907 13.3505 20.2907 13.1582C20.2907 12.966 20.2101 12.781 20.0656 12.6416C19.921 12.5021 19.7236 12.4188 19.514 12.4088H10.9626C10.8516 12.4035 10.7406 12.419 10.6363 12.4542C10.532 12.4895 10.4366 12.5439 10.356 12.614C10.2754 12.6841 10.2112 12.7685 10.1673 12.8621C10.1234 12.9556 10.1008 13.0564 10.1008 13.1582C10.1008 13.2601 10.1234 13.3608 10.1673 13.4544C10.2112 13.548 10.2754 13.6324 10.356 13.7025C10.4366 13.7726 10.532 13.827 10.6363 13.8622C10.7406 13.8975 10.8516 13.913 10.9626 13.9077H19.514ZM19.514 8.63424C19.7236 8.62425 19.921 8.54093 20.0656 8.40148C20.2101 8.26203 20.2907 8.07708 20.2907 7.8848C20.2907 7.69252 20.2101 7.50758 20.0656 7.36813C19.921 7.22868 19.7236 7.14536 19.514 7.13537H10.9626C10.8516 7.13007 10.7406 7.14554 10.6363 7.18081C10.532 7.21608 10.4366 7.27043 10.356 7.34054C10.2754 7.41065 10.2112 7.49506 10.1673 7.58863C10.1234 7.6822 10.1008 7.78297 10.1008 7.8848C10.1008 7.98664 10.1234 8.08741 10.1673 8.18098C10.2112 8.27454 10.2754 8.35895 10.356 8.42907C10.4366 8.49918 10.532 8.55352 10.6363 8.5888C10.7406 8.62407 10.8516 8.63953 10.9626 8.63424H19.514ZM3.9059 11.0803H7.97122C8.11862 11.0803 8.25998 11.1339 8.3642 11.2294C8.46843 11.3249 8.52699 11.4544 8.52699 11.5894V14.7271C8.5264 14.8619 8.46766 14.9911 8.36356 15.0865C8.25946 15.1818 8.11843 15.2356 7.97122 15.2362H7.85386V14.6865C7.85813 14.2858 7.70039 13.8979 7.41102 13.5974V12.0985H4.46167V13.7414C4.26828 14.0075 4.16506 14.3201 4.16496 14.6399V15.2362H3.9059C3.75868 15.2356 3.61765 15.1818 3.51355 15.0865C3.40945 14.9911 3.35071 14.8619 3.35012 14.7271V11.5894C3.35012 11.4544 3.40868 11.3249 3.51291 11.2294C3.61713 11.1339 3.7585 11.0803 3.9059 11.0803ZM20.517 1.41977C20.6922 1.41977 20.8634 1.46735 21.0091 1.5565C21.1547 1.64565 21.2683 1.77235 21.3353 1.9206C21.4023 2.06884 21.4199 2.23197 21.3857 2.38935C21.3515 2.54672 21.2672 2.69128 21.1433 2.80474C21.0194 2.91821 20.8616 2.99547 20.6898 3.02678C20.518 3.05808 20.3399 3.04202 20.1781 2.98061C20.0162 2.91921 19.8779 2.81522 19.7806 2.6818C19.6833 2.54839 19.6313 2.39153 19.6313 2.23107C19.6313 2.0159 19.7246 1.80954 19.8907 1.6574C20.0568 1.50525 20.2821 1.41977 20.517 1.41977ZM14.5497 1.41977C14.7249 1.41977 14.8961 1.46735 15.0417 1.5565C15.1874 1.64565 15.3009 1.77235 15.368 1.9206C15.435 2.06884 15.4525 2.23197 15.4184 2.38935C15.3842 2.54672 15.2998 2.69128 15.176 2.80474C15.0521 2.91821 14.8943 2.99547 14.7225 3.02678C14.5507 3.05808 14.3726 3.04202 14.2107 2.98061C14.0489 2.91921 13.9106 2.81522 13.8133 2.6818C13.7159 2.54839 13.664 2.39153 13.664 2.23107C13.664 2.0159 13.7573 1.80954 13.9234 1.6574C14.0895 1.50525 14.3148 1.41977 14.5497 1.41977ZM17.5345 1.41977C17.7096 1.41977 17.8809 1.46735 18.0265 1.5565C18.1722 1.64565 18.2857 1.77235 18.3527 1.9206C18.4198 2.06884 18.4373 2.23197 18.4031 2.38935C18.369 2.54672 18.2846 2.69128 18.1607 2.80474C18.0369 2.91821 17.8791 2.99547 17.7072 3.02678C17.5354 3.05808 17.3574 3.04202 17.1955 2.98061C17.0337 2.91921 16.8954 2.81522 16.798 2.6818C16.7007 2.54839 16.6488 2.39153 16.6488 2.23107C16.6488 2.0159 16.7421 1.80954 16.9082 1.6574C17.0743 1.50525 17.2996 1.41977 17.5345 1.41977Z" fill="currentColor"/>
</svg>
