<svg width="24" height="24" viewBox="0 0 24 24" fill="none" xmlns="http://www.w3.org/2000/svg">
<path d="M22.241 0.394079C23.0741 0.679439 23.6772 1.42512 23.7276 2.22144C23.7967 3.27552 23.0234 4.22352 21.9463 4.4124C20.9337 4.59192 19.829 3.74952 19.6404 2.65416C19.4793 1.71984 20.1468 0.702719 21.1178 0.398879C21.4677 0.288239 21.9372 0.288239 22.241 0.394079ZM21.27 1.20888C20.7775 1.35624 20.4691 1.78896 20.4691 2.3412C20.4691 2.72328 20.5704 3.02232 20.7729 3.22944C21.0122 3.47808 21.1826 3.54696 21.5969 3.57C21.9098 3.58848 22.0065 3.57456 22.2091 3.4872C22.6831 3.28464 22.9454 2.80128 22.895 2.23536C22.8257 1.43904 22.0754 0.969359 21.27 1.20888Z" fill="currentColor"/>
<path d="M11.5812 2.40095C12.2441 2.61719 12.7502 3.28919 12.7502 3.94751C12.7502 4.53671 12.3636 5.12111 11.7883 5.40191C11.5582 5.51687 11.4614 5.53535 11.1485 5.53535C10.8355 5.53535 10.7388 5.51687 10.518 5.40647C10.1683 5.23607 9.85056 4.91399 9.68496 4.55951C9.41328 3.97487 9.55152 3.31679 10.044 2.82887C10.4719 2.41007 11.0794 2.23991 11.5812 2.40095ZM10.7158 3.28464C10.2785 3.54239 10.283 4.35695 10.7203 4.61471C10.932 4.73903 11.3693 4.73903 11.581 4.61471C11.7926 4.49039 11.9078 4.26024 11.9078 3.95663C11.9078 3.55607 11.7468 3.31679 11.4062 3.20639C11.2361 3.15119 10.8722 3.19248 10.7158 3.28464Z" fill="currentColor"/>
<path d="M17.5646 3.768C18.6785 3.98424 19.7095 4.78056 20.2205 5.8116C20.4967 6.37776 20.6071 6.83352 20.6071 7.44096V7.92888L20.874 8.07624C21.2698 8.29728 21.6242 8.59632 21.8729 8.9232C22.3378 9.54 22.4942 10.074 22.5264 11.197L22.554 11.9839L22.7566 12.0667C23.0695 12.1956 23.4331 12.5592 23.6081 12.9137C23.7415 13.1806 23.76 13.2634 23.76 13.5902C23.76 13.9171 23.7415 13.9999 23.6081 14.2668C23.4331 14.6213 23.0695 14.9849 22.752 15.1138L22.5403 15.2011V15.4774C22.5403 15.9653 22.4482 16.8029 22.3517 17.2034C21.8731 19.2379 20.299 20.9777 18.3197 21.6682L17.9009 21.8155L17.8824 22.193C17.8594 22.6486 17.735 22.9294 17.4314 23.2332C17.0402 23.629 16.5062 23.7763 16.0459 23.629C15.5674 23.4725 15.1577 23.0767 15.0288 22.644L14.9736 22.4506H11.784C8.94865 22.4506 8.59441 22.4597 8.59441 22.5197C8.59441 22.6531 8.36425 23.0489 8.18017 23.2332C7.87633 23.537 7.57249 23.6659 7.16761 23.6705C6.73489 23.6705 6.46345 23.5507 6.12289 23.2056C5.82361 22.8972 5.69497 22.5751 5.69497 22.133V21.8201L5.27161 21.6682C4.38793 21.3598 3.59617 20.8627 2.93353 20.1953C1.65409 18.911 1.04641 17.3969 1.04641 15.5004V15.0355L0.793209 14.8008C0.627609 14.6534 0.489368 14.4648 0.392647 14.2668C0.259207 13.9997 0.240728 13.9169 0.240728 13.5902C0.240728 13.2864 0.263767 13.176 0.365047 12.9598C0.535448 12.5916 0.857529 12.2602 1.22569 12.0806L1.52881 11.9333L5.14657 11.9194L8.76433 11.9102L8.79193 11.5282C8.91169 9.83424 9.84145 8.26944 11.2958 7.30752C11.8159 6.9624 12.221 6.77808 12.8515 6.594C13.0817 6.52968 13.2794 6.46056 13.2934 6.44208C13.3118 6.4236 13.3577 6.30408 13.3992 6.17976C13.5833 5.59992 14.177 4.8312 14.7386 4.43064C15.1162 4.15896 15.6223 3.92424 16.0687 3.80928C16.4554 3.7128 17.1734 3.68976 17.5646 3.768ZM16.0505 4.66536C15.024 4.97376 14.3107 5.77008 14.076 6.86544L13.9932 7.23816L13.6111 7.29336C11.7379 7.56024 10.219 8.89512 9.77233 10.6718C9.69409 10.9802 9.61129 11.5555 9.60673 11.7811V11.91H15.6362H21.6658V11.2519C21.6658 10.5384 21.6014 10.1611 21.4171 9.80208C21.1639 9.30024 20.7912 8.96904 20.1098 8.63304C19.8521 8.50416 19.6404 8.3892 19.6404 8.37072C19.645 8.3568 19.6726 8.2188 19.7095 8.06688C19.9351 7.14624 19.6174 6.0324 18.9502 5.37432C18.5268 4.96008 17.9467 4.6656 17.3623 4.57344C17.0998 4.53192 16.3034 4.58712 16.0505 4.66536ZM1.62073 12.7894C0.957848 12.9734 0.852009 13.9678 1.45969 14.322L1.62073 14.4187H12H22.3793L22.5403 14.322C23.1295 13.9814 23.0558 13.0286 22.4254 12.8078C22.2689 12.7526 20.7086 12.7433 12.0233 12.7387C4.74145 12.7387 1.75441 12.7524 1.62073 12.7894ZM1.92001 15.8179C1.92001 17.346 2.46313 18.6348 3.54025 19.6704C4.29505 20.393 5.17873 20.8534 6.23281 21.0696L6.52273 21.1294V21.7462C6.52273 22.4136 6.57337 22.6207 6.76201 22.7402C6.94609 22.8646 7.19473 22.883 7.42489 22.7954C7.70569 22.6896 7.77937 22.5377 7.80241 22.0037L7.82089 21.5755H11.7929H15.7651L15.7836 22.0265C15.8021 22.5098 15.8618 22.657 16.0829 22.7767C16.267 22.8734 16.6675 22.855 16.8194 22.7446C17.0126 22.6018 17.0587 22.404 17.0587 21.7274L17.0633 21.1198L17.3256 21.0691C19.0978 20.724 20.5613 19.5547 21.2518 17.9347C21.5186 17.2994 21.6245 16.7978 21.6523 15.9924L21.6799 15.2698H11.7979H1.92001V15.8179Z" fill="currentColor"/>
<path d="M20.0779 17.3506C20.1838 17.4749 20.1977 17.5255 20.1746 17.682C20.0779 18.2666 19.3877 19.1364 19.0193 19.1364C18.803 19.1364 18.7248 19.0997 18.6511 18.9478C18.5268 18.7085 18.559 18.5978 18.8537 18.3173C19.1206 18.055 19.2542 17.8478 19.3601 17.5164C19.4292 17.3002 19.5626 17.2034 19.7834 17.2034C19.9214 17.2034 19.9812 17.2356 20.0779 17.3506Z" fill="#8BC152"/>
<path d="M17.7396 19.339C17.8961 19.477 17.9191 19.7623 17.7811 19.9142C17.6247 20.0844 16.7547 20.3009 15.6593 20.4343C14.9827 20.5126 12.2993 20.5171 12.1519 20.4343C11.8942 20.2915 11.8527 19.9142 12.0737 19.7393C12.1795 19.6565 12.2717 19.6519 13.6248 19.6519C15.2451 19.6565 15.9353 19.5967 16.879 19.3666C17.551 19.201 17.5786 19.201 17.7396 19.339Z" fill="#8BC152"/>
</svg>
